<svg id="svg" version="1.1" xmlns="http://www.w3.org/2000/svg" xmlns:xlink="http://www.w3.org/1999/xlink" width="400" height="250" viewBox="0, 0, 400,250"><g id="svgg"><path id="path0" d="M152.997 12.508 C 151.235 12.857,149.001 14.546,148.250 16.098 C 147.837 16.949,147.836 17.004,147.893 32.548 L 147.949 48.145 148.381 48.951 C 150.997 53.842,158.389 53.915,160.774 49.072 L 161.230 48.145 161.285 32.728 L 161.340 17.312 160.843 16.298 C 159.470 13.492,156.144 11.885,152.997 12.508 M189.520 12.510 C 187.616 12.882,185.685 14.411,184.768 16.274 L 184.170 17.488 184.224 32.816 C 184.285 50.252,184.141 48.819,186.001 50.534 C 189.678 53.923,194.999 53.195,197.279 48.989 L 197.949 47.754 198.004 32.832 C 198.066 15.967,198.135 16.807,196.546 15.040 C 194.758 13.051,191.942 12.038,189.520 12.510 M225.460 12.508 C 223.523 12.891,221.407 14.504,220.639 16.180 C 220.226 17.084,220.223 17.190,220.219 32.715 L 220.215 48.340 220.662 49.178 C 223.207 53.943,230.284 53.942,232.924 49.177 L 233.496 48.145 233.496 32.617 L 233.496 17.090 232.976 16.113 C 231.544 13.425,228.413 11.923,225.460 12.508 M125.391 66.925 C 100.649 69.296,80.444 79.711,65.757 97.665 C 57.643 107.585,51.159 121.262,48.724 133.594 C 48.131 136.598,48.137 136.588,46.796 137.154 C 31.414 143.654,18.656 155.314,15.046 166.171 C 10.270 180.536,17.858 194.547,36.719 206.190 C 61.652 221.583,107.918 232.910,162.207 236.913 C 193.647 239.231,209.158 239.136,243.164 236.413 C 266.853 234.516,294.471 230.195,312.402 225.579 C 351.634 215.480,377.837 200.014,384.530 183.008 C 390.563 167.680,379.235 150.290,355.762 138.846 C 351.788 136.909,350.377 136.311,344.727 134.168 C 342.133 133.184,342.120 133.177,341.953 132.499 C 337.198 113.242,328.736 99.286,314.258 86.823 C 295.073 70.309,267.317 63.306,241.504 68.466 C 223.538 72.058,208.556 80.351,196.089 93.604 C 194.118 95.698,194.576 95.779,191.741 92.840 C 180.564 81.253,167.951 73.869,152.265 69.730 C 143.940 67.533,132.024 66.289,125.391 66.925 M141.406 83.176 C 147.394 87.349,152.650 96.814,152.814 103.721 C 153.022 112.460,165.966 113.404,167.087 104.762 C 167.590 100.885,164.242 92.554,160.428 88.194 C 158.859 86.401,158.973 86.391,162.731 87.997 C 171.606 91.789,176.899 95.516,184.389 103.250 C 187.099 106.049,187.091 106.033,186.373 107.176 C 185.616 108.379,184.022 111.368,181.348 116.599 L 179.199 120.801 178.125 120.949 C 176.635 121.154,173.866 121.786,170.410 122.711 C 166.266 123.820,166.587 123.816,166.036 122.765 C 161.443 113.990,147.545 114.160,142.949 123.047 C 140.829 127.147,145.233 130.706,150.478 129.133 C 153.728 128.158,152.101 129.719,146.226 133.211 C 137.812 138.213,124.209 152.656,119.917 161.144 C 119.615 161.742,119.215 162.357,119.029 162.512 C 118.738 162.753,115.414 162.793,95.624 162.793 L 72.559 162.793 70.829 162.226 C 63.160 159.712,59.357 151.486,60.843 140.624 C 63.783 119.134,76.099 100.734,94.296 90.646 C 96.486 89.432,102.115 87.109,102.869 87.109 C 103.141 87.109,102.787 87.926,102.080 88.930 C 97.522 95.401,95.451 102.886,97.223 106.485 C 99.800 111.721,106.922 112.174,110.268 107.316 C 110.989 106.269,111.000 106.225,111.142 103.763 C 111.539 96.857,115.532 88.364,120.234 84.428 C 121.823 83.098,124.201 81.557,124.383 81.740 C 124.454 81.810,124.556 87.288,124.609 93.913 L 124.707 105.957 125.160 106.806 C 127.416 111.032,133.103 111.845,136.742 108.461 C 138.663 106.674,138.569 107.429,138.502 94.380 C 138.470 88.120,138.503 82.647,138.576 82.217 L 138.708 81.436 139.422 81.864 C 139.815 82.099,140.708 82.690,141.406 83.176 M251.953 93.642 L 251.953 105.619 252.500 106.667 C 255.026 111.502,263.076 111.405,265.446 106.510 L 265.887 105.598 265.853 94.352 C 265.834 88.166,265.765 82.820,265.700 82.471 C 265.544 81.638,265.819 81.645,267.261 82.513 C 273.991 86.566,278.935 95.117,279.477 103.643 C 279.607 105.681,279.699 106.138,280.132 106.877 C 283.152 112.030,291.225 111.632,293.942 106.195 C 295.810 102.457,292.938 94.376,287.656 88.510 C 286.292 86.994,286.612 86.892,289.605 87.887 C 305.629 93.212,321.353 110.049,326.271 127.148 C 331.065 143.815,328.659 157.441,320.215 161.451 C 317.297 162.836,318.755 162.795,275.961 162.708 L 269.793 162.695 268.295 160.379 C 260.811 148.800,251.420 139.497,238.413 130.773 L 235.518 128.832 235.972 128.483 C 236.571 128.022,237.367 128.036,238.675 128.529 C 239.264 128.751,240.098 129.063,240.527 129.222 C 245.238 130.961,250.258 126.859,248.291 122.877 C 244.042 114.274,230.228 114.254,224.518 122.842 C 223.681 124.101,223.588 124.179,223.091 124.033 C 222.798 123.948,221.548 123.562,220.313 123.176 C 214.209 121.269,206.384 119.914,198.166 119.340 C 195.187 119.132,195.116 119.110,195.484 118.520 C 195.624 118.296,196.374 116.915,197.151 115.452 C 197.927 113.990,198.811 112.397,199.114 111.914 C 201.642 107.883,202.960 106.151,207.051 101.490 C 212.376 95.423,221.655 89.356,228.785 87.280 C 231.488 86.494,231.863 86.595,230.652 87.783 C 226.023 92.327,222.460 103.072,224.456 106.468 C 226.478 109.908,230.979 111.541,234.220 110.012 C 237.413 108.505,238.562 106.865,238.514 103.881 C 238.436 99.035,241.765 90.842,245.581 86.488 C 247.394 84.419,251.343 81.287,251.790 81.563 C 251.880 81.618,251.953 87.054,251.953 93.642 M293.704 116.217 C 287.438 117.272,281.569 123.367,283.387 126.931 C 284.916 129.928,288.764 130.785,292.671 128.998 C 295.510 127.699,295.716 127.689,297.862 128.732 C 301.929 130.711,305.007 130.622,306.951 128.471 C 308.447 126.815,308.563 125.567,307.432 123.314 C 304.845 118.160,299.273 115.280,293.704 116.217 M93.652 116.665 C 88.166 118.502,83.502 124.138,85.027 127.087 C 86.634 130.196,90.183 130.814,94.465 128.732 C 96.975 127.511,96.772 127.510,99.342 128.760 C 105.314 131.663,111.133 127.882,108.602 122.742 C 106.168 117.798,98.986 114.878,93.652 116.665 M187.110 145.459 C 187.112 158.863,187.037 158.201,188.740 159.876 C 191.918 163.000,196.632 163.019,199.531 159.920 C 201.356 157.969,201.262 158.724,201.327 145.557 C 201.374 136.017,201.431 133.984,201.647 133.984 C 201.792 133.984,202.733 134.524,203.738 135.184 C 208.227 138.130,211.776 143.174,214.026 149.805 C 214.891 152.352,214.984 152.780,215.209 155.219 C 215.817 161.808,223.101 164.539,228.094 160.050 C 230.393 157.983,230.765 155.390,229.374 151.138 C 228.674 148.996,226.079 144.155,225.205 143.359 C 224.954 143.131,223.872 141.663,223.658 141.260 C 223.220 140.437,224.739 140.928,229.997 143.308 C 246.621 150.832,259.291 167.038,263.556 186.230 C 266.885 201.213,263.763 211.751,255.201 214.423 C 253.970 214.807,138.477 215.033,134.863 214.658 C 121.912 213.315,119.785 191.411,130.566 170.410 C 137.655 156.602,149.873 145.310,162.163 141.206 C 163.878 140.634,163.901 140.698,162.643 142.513 C 157.191 150.379,156.173 156.616,159.779 160.056 C 161.459 161.657,162.352 162.009,164.746 162.010 C 169.330 162.011,172.130 159.329,172.646 154.444 C 173.198 149.226,176.551 142.515,180.739 138.249 C 182.111 136.851,186.305 133.800,186.865 133.793 C 187.058 133.790,187.110 136.252,187.110 145.459 M345.156 145.978 C 357.962 151.141,370.565 160.703,374.268 168.066 C 380.967 181.387,364.815 197.444,333.691 208.403 C 318.037 213.915,289.487 220.298,271.680 222.266 C 270.659 222.379,269.678 222.516,269.499 222.572 C 268.846 222.773,268.979 222.301,269.863 221.270 C 277.773 212.050,280.219 199.993,277.228 184.961 C 276.608 181.846,275.509 177.303,275.289 176.947 C 274.970 176.430,276.374 176.386,295.613 176.308 C 316.642 176.223,315.753 176.259,319.727 175.333 C 330.620 172.793,340.771 159.920,342.669 146.240 C 342.827 145.096,342.940 145.085,345.156 145.978 M47.747 149.756 C 49.487 161.450,58.808 172.561,69.268 175.408 C 70.111 175.637,70.924 175.925,71.075 176.047 C 71.274 176.209,77.100 176.296,92.459 176.367 C 112.376 176.459,113.573 176.484,113.635 176.807 C 113.671 176.995,113.468 178.094,113.184 179.249 C 108.863 196.803,110.021 208.120,117.280 219.255 C 118.574 221.240,118.564 221.172,117.529 221.035 C 110.087 220.050,91.728 215.842,79.004 212.203 C 27.614 197.508,10.816 175.096,36.748 155.826 C 41.389 152.378,46.628 149.034,47.403 149.026 C 47.533 149.025,47.688 149.353,47.747 149.756 M158.601 169.554 C 151.474 170.629,146.186 178.227,150.084 181.790 C 152.261 183.779,154.381 183.891,158.284 182.224 C 160.516 181.270,160.605 181.269,162.573 182.178 C 167.000 184.221,172.732 181.719,172.172 177.987 C 171.420 172.971,164.492 168.666,158.601 169.554 M220.020 169.621 C 214.358 170.655,209.094 176.381,210.720 179.738 C 212.156 182.706,216.564 183.826,220.321 182.177 C 222.373 181.277,222.585 181.275,224.589 182.143 C 226.932 183.159,228.199 183.354,229.731 182.935 C 239.526 180.256,230.387 167.727,220.020 169.621 " stroke="none" fill="#0a1b29" fill-rule="evenodd"></path><path id="path1" d="M0.000 124.714 C 0.000 245.919,0.010 249.422,0.361 249.235 C 0.609 249.102,0.792 249.112,0.947 249.267 C 1.117 249.437,1.172 249.428,1.172 249.229 C 1.172 249.007,10.712 248.986,60.205 249.093 C 92.673 249.164,127.565 249.219,137.741 249.216 C 155.572 249.210,157.352 249.248,157.116 249.630 C 157.057 249.726,157.101 249.805,157.215 249.805 C 157.329 249.805,157.422 249.666,157.422 249.496 C 157.422 249.135,158.824 249.225,158.947 249.594 C 158.985 249.710,159.383 249.794,159.831 249.782 C 160.278 249.770,160.490 249.719,160.300 249.670 C 160.111 249.620,160.006 249.499,160.068 249.399 C 160.240 249.120,160.862 249.186,161.133 249.512 C 161.267 249.673,161.470 249.805,161.585 249.805 C 161.699 249.805,161.623 249.676,161.414 249.518 C 161.078 249.264,161.746 249.229,167.285 249.215 C 228.626 249.052,310.921 249.052,314.648 249.214 C 320.058 249.450,319.795 249.428,319.936 249.643 C 320.152 249.972,366.009 249.935,366.221 249.605 C 366.370 249.372,366.438 249.366,366.571 249.571 C 366.825 249.965,368.149 250.071,368.288 249.710 C 368.350 249.547,368.533 249.414,368.694 249.414 C 368.874 249.414,368.944 249.527,368.875 249.707 C 368.776 249.964,369.479 249.996,374.567 249.968 C 377.759 249.951,379.888 249.882,379.297 249.815 C 377.652 249.629,382.280 249.413,391.309 249.255 L 398.926 249.121 399.051 245.801 C 399.201 241.824,399.248 224.953,399.111 224.121 C 398.774 222.073,398.782 186.483,399.143 69.824 C 399.299 19.486,399.300 14.191,399.154 7.764 C 399.082 4.581,399.111 2.930,399.241 2.930 C 399.349 2.930,399.381 2.820,399.313 2.686 C 399.245 2.551,399.328 2.612,399.497 2.821 C 399.846 3.251,399.811 3.405,399.886 1.123 C 399.920 0.072,399.769 -0.315,399.543 0.244 C 399.465 0.439,399.442 0.439,399.429 0.244 C 399.417 0.049,359.334 0.000,199.707 0.000 L 0.000 0.000 0.000 124.714 M228.695 12.523 C 230.970 13.036,233.069 15.141,233.580 17.421 C 233.941 19.031,233.874 46.984,233.507 48.181 C 231.767 53.844,223.494 54.626,220.605 49.400 L 220.020 48.340 220.020 32.715 L 220.020 17.090 220.503 16.113 C 221.446 14.207,223.574 12.665,225.738 12.318 C 226.706 12.163,227.274 12.203,228.695 12.523 M157.446 12.831 C 159.054 13.555,160.797 15.439,161.296 16.992 C 161.550 17.783,161.667 46.258,161.422 47.559 C 160.399 52.986,153.980 54.645,149.582 50.618 C 147.626 48.827,147.763 50.111,147.691 32.910 C 147.647 22.278,147.693 17.575,147.848 16.861 C 148.595 13.431,153.865 11.218,157.446 12.831 M194.195 13.050 C 195.788 13.834,197.495 15.625,197.947 16.984 C 198.214 17.791,198.245 19.724,198.198 32.828 L 198.145 47.754 197.520 48.949 C 195.089 53.600,189.210 54.223,185.507 50.223 C 183.913 48.502,183.984 49.337,183.984 32.367 L 183.984 17.445 184.582 16.250 C 186.373 12.665,190.573 11.267,194.195 13.050 M265.430 66.812 C 282.373 68.378,298.108 74.230,310.449 83.554 C 326.181 95.439,336.844 111.577,341.749 130.925 L 342.285 133.041 343.848 133.632 C 358.876 139.321,367.590 144.435,375.293 152.086 C 397.819 174.462,385.289 198.506,341.797 216.363 C 318.577 225.897,282.674 233.322,244.336 236.519 C 209.398 239.433,192.176 239.472,157.422 236.719 C 151.720 236.267,145.430 235.681,141.797 235.263 C 133.461 234.305,122.272 232.841,120.020 232.414 C 119.482 232.312,117.505 231.961,115.625 231.634 C 113.745 231.307,110.669 230.740,108.789 230.374 C 106.909 230.008,104.360 229.520,103.125 229.289 C 87.693 226.407,64.386 219.633,53.179 214.772 C 52.559 214.502,51.348 213.978,50.488 213.607 C 31.577 205.430,18.541 194.043,14.777 182.412 C 9.535 166.216,20.745 149.501,44.561 138.002 L 47.980 136.351 48.201 135.314 C 48.323 134.744,48.479 133.926,48.548 133.496 C 50.305 122.560,58.558 105.548,66.499 96.494 C 83.693 76.889,107.568 66.034,132.115 66.660 C 154.274 67.226,174.527 75.694,189.941 90.841 C 194.703 95.520,194.243 95.360,196.351 93.071 C 213.181 74.794,240.293 64.488,265.430 66.812 M342.811 147.057 C 342.291 150.361,340.348 155.966,338.546 159.357 C 334.486 166.999,328.160 172.699,320.866 175.289 C 318.611 176.089,278.634 201.117,278.560 201.774 C 277.803 208.517,273.913 217.178,269.493 221.958 C 268.946 222.550,268.394 222.586,275.293 221.573 C 278.976 221.031,289.825 219.271,291.504 218.942 C 292.041 218.837,294.546 218.349,297.070 217.857 C 304.038 216.500,311.948 214.687,316.211 213.469 C 316.909 213.269,318.403 212.847,319.531 212.530 C 336.207 207.851,347.642 203.203,357.709 197.014 C 365.752 192.070,372.298 185.506,374.443 180.235 C 378.317 170.715,372.600 161.740,356.445 151.983 C 352.723 149.735,344.078 145.508,343.203 145.508 C 343.121 145.508,342.945 146.205,342.811 147.057 M213.113 148.828 C 213.113 148.989,213.189 149.297,213.281 149.512 C 213.387 149.758,213.449 149.794,213.449 149.609 C 213.449 149.448,213.374 149.141,213.281 148.926 C 213.175 148.680,213.113 148.643,213.113 148.828 M45.605 150.077 C 30.293 158.439,22.391 169.885,25.568 179.102 C 30.842 194.400,55.264 207.132,98.047 216.890 C 105.024 218.481,107.179 218.942,111.621 219.793 C 118.740 221.157,118.319 221.180,117.241 219.488 C 113.511 213.632,111.084 207.298,110.623 202.216 C 110.447 200.270,111.865 201.293,94.141 190.326 C 85.493 184.975,76.925 179.671,75.101 178.541 C 72.785 177.105,71.404 176.380,70.524 176.135 C 59.247 173.008,49.945 162.734,47.704 150.928 C 47.525 149.988,47.332 149.220,47.274 149.221 C 47.216 149.223,46.465 149.608,45.605 150.077 M381.009 249.946 C 381.360 249.990,381.888 249.989,382.181 249.944 C 382.475 249.900,382.188 249.864,381.543 249.865 C 380.898 249.866,380.658 249.903,381.009 249.946 " stroke="none" fill="#ffffff" fill-rule="evenodd"></path><path id="path2" d="M399.805 2.674 C 399.805 3.183,399.795 3.187,399.497 2.821 C 399.328 2.612,399.245 2.551,399.313 2.686 C 399.381 2.820,399.349 2.930,399.241 2.930 C 399.111 2.930,399.082 4.581,399.154 7.764 C 399.300 14.191,399.299 19.486,399.143 69.824 C 398.782 186.483,398.774 222.073,399.111 224.121 C 399.248 224.953,399.201 241.824,399.051 245.801 L 398.926 249.121 391.113 249.266 C 375.256 249.561,374.888 249.874,390.283 249.973 L 400.000 250.035 400.000 126.092 C 400.000 57.923,399.956 2.148,399.902 2.148 C 399.849 2.148,399.805 2.385,399.805 2.674 M147.749 32.031 C 147.749 40.249,147.773 43.611,147.803 39.502 C 147.832 35.393,147.832 28.669,147.803 24.561 C 147.773 20.452,147.749 23.813,147.749 32.031 M220.014 30.176 C 220.014 37.051,220.038 39.835,220.068 36.363 C 220.098 32.891,220.098 27.266,220.068 23.863 C 220.038 20.460,220.014 23.301,220.014 30.176 M233.654 19.043 C 233.655 19.688,233.692 19.928,233.735 19.577 C 233.779 19.226,233.778 18.698,233.733 18.405 C 233.689 18.111,233.653 18.398,233.654 19.043 M198.116 20.410 C 198.116 21.377,198.149 21.797,198.190 21.344 C 198.231 20.890,198.231 20.099,198.191 19.586 C 198.150 19.072,198.117 19.443,198.116 20.410 M198.092 27.344 C 198.092 27.720,198.132 27.874,198.182 27.686 C 198.231 27.498,198.231 27.190,198.182 27.002 C 198.132 26.814,198.092 26.968,198.092 27.344 M198.122 36.914 C 198.122 38.257,198.153 38.806,198.191 38.135 C 198.230 37.463,198.230 36.365,198.191 35.693 C 198.153 35.022,198.122 35.571,198.122 36.914 M161.586 40.625 C 161.586 41.323,161.621 41.609,161.665 41.260 C 161.708 40.911,161.708 40.339,161.665 39.990 C 161.621 39.641,161.586 39.927,161.586 40.625 M233.845 42.090 C 233.846 42.627,233.884 42.823,233.929 42.527 C 233.974 42.230,233.973 41.790,233.927 41.550 C 233.880 41.310,233.843 41.553,233.845 42.090 M198.103 46.387 C 198.104 46.924,198.142 47.120,198.187 46.823 C 198.232 46.527,198.231 46.087,198.184 45.847 C 198.138 45.607,198.101 45.850,198.103 46.387 M190.970 52.876 C 191.321 52.919,191.849 52.918,192.142 52.874 C 192.436 52.829,192.148 52.794,191.504 52.795 C 190.859 52.796,190.619 52.832,190.970 52.876 M258.350 66.544 C 258.591 66.591,258.987 66.591,259.229 66.544 C 259.470 66.498,259.272 66.459,258.789 66.459 C 258.306 66.459,258.108 66.498,258.350 66.544 M126.321 66.740 C 126.564 66.786,126.915 66.785,127.102 66.736 C 127.289 66.687,127.090 66.649,126.660 66.651 C 126.230 66.653,126.078 66.693,126.321 66.740 M133.350 66.739 C 133.591 66.786,133.987 66.786,134.229 66.739 C 134.470 66.693,134.272 66.655,133.789 66.655 C 133.306 66.655,133.108 66.693,133.350 66.739 M253.469 66.740 C 253.712 66.786,254.064 66.785,254.250 66.736 C 254.437 66.687,254.238 66.649,253.809 66.651 C 253.379 66.653,253.226 66.693,253.469 66.740 M263.525 66.736 C 263.713 66.785,264.021 66.785,264.209 66.736 C 264.397 66.687,264.243 66.647,263.867 66.647 C 263.491 66.647,263.337 66.687,263.525 66.736 M136.282 66.935 C 136.525 66.982,136.876 66.980,137.063 66.931 C 137.250 66.882,137.051 66.844,136.621 66.846 C 136.191 66.848,136.039 66.888,136.282 66.935 M201.843 87.744 L 201.270 88.379 201.904 87.805 C 202.253 87.490,202.539 87.204,202.539 87.170 C 202.539 87.020,202.378 87.152,201.843 87.744 M187.207 88.281 C 187.627 88.711,188.014 89.063,188.068 89.063 C 188.121 89.063,187.822 88.711,187.402 88.281 C 186.983 87.852,186.596 87.500,186.542 87.500 C 186.488 87.500,186.787 87.852,187.207 88.281 M316.992 89.160 C 317.357 89.536,317.699 89.844,317.752 89.844 C 317.806 89.844,317.552 89.536,317.188 89.160 C 316.823 88.784,316.481 88.477,316.427 88.477 C 316.374 88.477,316.628 88.784,316.992 89.160 M197.946 91.455 L 195.801 93.652 197.998 91.507 C 199.207 90.327,200.195 89.339,200.195 89.310 C 200.195 89.169,199.938 89.414,197.946 91.455 M71.090 91.553 L 69.238 93.457 71.143 91.605 C 72.911 89.886,73.136 89.648,72.994 89.648 C 72.965 89.648,72.108 90.505,71.090 91.553 M193.253 94.287 C 194.013 95.104,194.401 95.290,194.618 94.939 C 194.679 94.841,194.574 94.787,194.386 94.819 C 194.197 94.851,193.691 94.557,193.262 94.167 L 192.480 93.457 193.253 94.287 M186.772 142.969 C 186.772 143.452,186.810 143.650,186.857 143.408 C 186.903 143.167,186.903 142.771,186.857 142.529 C 186.810 142.288,186.772 142.485,186.772 142.969 M186.800 147.461 C 186.800 149.448,186.829 150.261,186.864 149.268 C 186.900 148.274,186.900 146.648,186.864 145.654 C 186.829 144.661,186.800 145.474,186.800 147.461 M347.282 147.144 C 347.481 147.326,349.414 148.239,349.414 148.151 C 349.414 148.041,347.549 147.070,347.337 147.070 C 347.262 147.070,347.237 147.104,347.282 147.144 M27.038 149.268 L 26.465 149.902 27.100 149.329 C 27.691 148.794,27.824 148.633,27.673 148.633 C 27.640 148.633,27.354 148.918,27.038 149.268 M24.309 151.807 L 23.340 152.832 24.365 151.863 C 24.929 151.330,25.391 150.868,25.391 150.837 C 25.391 150.692,25.210 150.854,24.309 151.807 M32.315 159.619 L 31.543 160.449 32.373 159.677 C 33.145 158.959,33.293 158.789,33.145 158.789 C 33.113 158.789,32.740 159.163,32.315 159.619 M56.934 168.164 C 57.571 168.809,58.137 169.336,58.191 169.336 C 58.245 169.336,57.767 168.809,57.129 168.164 C 56.491 167.520,55.925 166.992,55.872 166.992 C 55.818 166.992,56.296 167.520,56.934 168.164 M13.551 174.512 C 13.552 175.801,13.583 176.303,13.621 175.627 C 13.660 174.952,13.659 173.897,13.621 173.283 C 13.582 172.670,13.551 173.223,13.551 174.512 M386.182 172.949 C 386.184 173.379,386.224 173.532,386.271 173.289 C 386.318 173.046,386.316 172.694,386.267 172.507 C 386.218 172.321,386.180 172.520,386.182 172.949 M24.850 173.438 C 24.850 173.813,24.890 173.967,24.939 173.779 C 24.988 173.591,24.988 173.284,24.939 173.096 C 24.890 172.908,24.850 173.062,24.850 173.438 M319.386 175.396 C 317.357 176.212,316.355 176.251,295.548 176.318 C 278.907 176.372,275.551 176.427,275.466 176.649 C 275.409 176.795,275.762 178.528,276.248 180.499 C 277.909 187.224,278.700 193.829,278.459 198.940 C 278.396 200.275,278.382 201.367,278.429 201.367 C 278.537 201.367,319.368 175.867,319.633 175.634 C 319.743 175.538,319.953 175.499,320.100 175.548 C 320.261 175.601,320.313 175.549,320.231 175.416 C 320.072 175.160,319.979 175.158,319.386 175.396 M69.043 175.663 C 69.365 175.810,69.937 175.982,70.313 176.045 C 70.903 176.144,70.880 176.121,70.139 175.877 C 68.849 175.453,68.386 175.362,69.043 175.663 M71.582 176.430 C 71.904 176.583,75.771 178.945,80.176 181.679 C 84.580 184.412,93.062 189.665,99.023 193.351 C 104.985 197.037,110.011 200.219,110.191 200.422 C 110.668 200.957,110.688 200.822,110.704 197.070 C 110.729 191.337,111.438 186.238,113.206 179.083 C 113.491 177.927,113.672 176.843,113.607 176.674 C 113.501 176.398,111.448 176.367,92.902 176.367 C 81.579 176.367,72.018 176.319,71.655 176.259 L 70.996 176.151 71.582 176.430 M386.178 176.758 C 386.178 177.134,386.218 177.288,386.267 177.100 C 386.317 176.912,386.317 176.604,386.267 176.416 C 386.218 176.228,386.178 176.382,386.178 176.758 M31.836 188.965 C 32.528 189.663,33.138 190.234,33.192 190.234 C 33.246 190.234,32.723 189.663,32.031 188.965 C 31.339 188.267,30.729 187.695,30.675 187.695 C 30.622 187.695,31.144 188.267,31.836 188.965 M23.234 195.947 C 23.713 196.458,24.130 196.875,24.162 196.875 C 24.308 196.875,24.153 196.700,23.291 195.890 L 22.363 195.020 23.234 195.947 M374.208 197.217 L 373.535 197.949 374.268 197.276 C 374.949 196.650,375.090 196.484,374.941 196.484 C 374.908 196.484,374.578 196.814,374.208 197.217 M135.892 214.595 C 136.243 214.638,136.771 214.637,137.064 214.593 C 137.358 214.548,137.070 214.513,136.426 214.514 C 135.781 214.515,135.541 214.551,135.892 214.595 M145.361 235.682 C 145.549 235.731,145.857 235.731,146.045 235.682 C 146.233 235.632,146.079 235.592,145.703 235.592 C 145.327 235.592,145.173 235.632,145.361 235.682 M237.258 237.052 C 237.501 237.099,237.853 237.097,238.039 237.048 C 238.226 236.999,238.027 236.961,237.598 236.963 C 237.168 236.965,237.015 237.005,237.258 237.052 M163.916 237.244 C 164.104 237.293,164.412 237.293,164.600 237.244 C 164.788 237.195,164.634 237.155,164.258 237.155 C 163.882 237.155,163.728 237.195,163.916 237.244 M234.424 237.244 C 234.612 237.293,234.919 237.293,235.107 237.244 C 235.295 237.195,235.142 237.155,234.766 237.155 C 234.390 237.155,234.236 237.195,234.424 237.244 M172.510 237.830 C 172.698 237.879,173.005 237.879,173.193 237.830 C 173.381 237.781,173.228 237.741,172.852 237.741 C 172.476 237.741,172.322 237.781,172.510 237.830 M225.735 237.833 C 225.978 237.880,226.329 237.878,226.516 237.830 C 226.703 237.781,226.504 237.742,226.074 237.745 C 225.645 237.747,225.492 237.787,225.735 237.833 M175.635 238.025 C 175.823 238.074,176.130 238.074,176.318 238.025 C 176.506 237.976,176.353 237.936,175.977 237.936 C 175.601 237.936,175.447 237.976,175.635 238.025 M222.412 238.028 C 222.654 238.075,223.049 238.075,223.291 238.028 C 223.533 237.982,223.335 237.944,222.852 237.944 C 222.368 237.944,222.170 237.982,222.412 238.028 M178.857 238.224 C 179.099 238.270,179.495 238.270,179.736 238.224 C 179.978 238.177,179.780 238.139,179.297 238.139 C 178.813 238.139,178.616 238.177,178.857 238.224 M218.701 238.224 C 218.943 238.270,219.338 238.270,219.580 238.224 C 219.822 238.177,219.624 238.139,219.141 238.139 C 218.657 238.139,218.459 238.177,218.701 238.224 M182.568 238.419 C 182.810 238.466,183.206 238.466,183.447 238.419 C 183.689 238.373,183.491 238.334,183.008 238.334 C 182.524 238.334,182.327 238.373,182.568 238.419 M214.307 238.421 C 214.602 238.466,215.085 238.466,215.381 238.421 C 215.676 238.376,215.435 238.340,214.844 238.340 C 214.253 238.340,214.011 238.376,214.307 238.421 M187.646 238.618 C 187.996 238.661,188.567 238.661,188.916 238.618 C 189.265 238.575,188.979 238.539,188.281 238.539 C 187.583 238.539,187.297 238.575,187.646 238.618 M208.345 238.618 C 208.692 238.661,209.307 238.661,209.712 238.619 C 210.118 238.577,209.834 238.542,209.082 238.541 C 208.330 238.540,207.999 238.574,208.345 238.618 M195.177 238.818 C 196.553 238.852,198.751 238.851,200.060 238.818 C 201.370 238.784,200.244 238.756,197.559 238.757 C 194.873 238.757,193.802 238.784,195.177 238.818 M0.340 249.243 C -1.077 250.036,-9.262 250.003,172.021 249.953 C 266.633 249.927,338.616 249.882,331.982 249.854 C 324.713 249.822,319.922 249.730,319.922 249.620 C 319.922 249.520,319.768 249.434,319.580 249.429 C 319.392 249.423,317.173 249.328,314.648 249.217 C 310.904 249.052,229.261 249.051,167.285 249.215 C 161.746 249.229,161.078 249.264,161.414 249.518 C 161.623 249.676,161.699 249.805,161.585 249.805 C 161.470 249.805,161.267 249.673,161.133 249.512 C 160.862 249.186,160.240 249.120,160.068 249.399 C 160.006 249.499,160.111 249.620,160.300 249.670 C 160.490 249.719,160.278 249.770,159.831 249.782 C 159.383 249.794,158.985 249.710,158.947 249.594 C 158.824 249.225,157.422 249.135,157.422 249.496 C 157.422 249.666,157.329 249.805,157.215 249.805 C 157.101 249.805,157.057 249.726,157.116 249.630 C 157.352 249.248,155.572 249.210,137.741 249.216 C 127.565 249.219,92.673 249.164,60.205 249.093 C 12.485 248.989,1.172 249.012,1.172 249.213 C 1.172 249.391,1.102 249.404,0.926 249.258 C 0.763 249.122,0.564 249.118,0.340 249.243 M366.211 249.606 C 366.211 249.726,364.211 249.819,360.889 249.854 L 355.566 249.909 361.293 249.954 C 366.384 249.995,366.988 249.967,366.727 249.707 C 366.388 249.368,366.211 249.333,366.211 249.606 M368.283 249.721 C 368.201 249.935,368.264 250.009,368.490 249.965 C 368.669 249.931,368.852 249.792,368.897 249.658 C 369.016 249.299,368.422 249.360,368.283 249.721 " stroke="none" fill="#e7e9e7" fill-rule="evenodd"></path><path id="path3" d="M122.606 82.831 C 116.588 86.765,111.345 96.634,111.331 104.055 C 111.315 112.631,97.946 113.263,96.465 104.758 C 95.811 100.998,98.113 94.272,101.883 88.930 C 102.687 87.790,103.061 86.900,102.500 87.461 C 102.371 87.590,102.119 87.695,101.941 87.695 C 100.901 87.695,95.983 89.877,92.532 91.870 C 84.289 96.629,76.675 104.055,71.040 112.834 C 69.958 114.518,69.437 115.475,69.491 115.674 C 69.513 115.754,69.438 115.820,69.324 115.820 C 69.211 115.820,69.172 115.908,69.238 116.016 C 69.305 116.123,69.281 116.211,69.187 116.211 C 68.296 116.211,64.154 126.696,62.475 133.203 C 58.820 147.361,61.201 157.586,69.021 161.318 C 71.623 162.559,70.280 162.500,95.720 162.500 C 119.884 162.500,119.190 162.523,119.369 161.718 C 119.404 161.557,119.480 161.382,119.537 161.328 C 119.594 161.274,120.294 160.176,121.093 158.887 C 127.114 149.166,138.178 137.913,147.173 132.361 C 148.249 131.696,149.563 130.851,150.092 130.482 L 151.054 129.811 150.539 129.639 C 150.186 129.521,149.863 129.551,149.514 129.734 C 149.133 129.934,148.649 129.964,147.598 129.852 C 141.842 129.241,140.510 124.644,144.820 120.270 C 150.994 114.004,160.793 114.740,165.638 121.833 C 166.204 122.662,166.687 123.367,166.711 123.400 C 166.735 123.433,167.270 123.319,167.899 123.146 C 172.019 122.011,175.897 121.082,177.395 120.870 L 179.140 120.623 181.167 116.610 C 183.360 112.267,185.838 107.589,186.363 106.800 C 186.812 106.123,186.524 105.683,183.746 102.805 C 177.843 96.691,170.317 91.459,163.281 88.581 C 162.583 88.295,161.735 87.935,161.396 87.781 C 161.058 87.626,160.733 87.500,160.675 87.500 C 160.424 87.500,160.768 88.356,161.288 89.022 C 166.122 95.221,168.466 103.153,166.594 106.974 C 163.176 113.947,152.722 111.505,152.626 103.711 C 152.560 98.298,148.945 90.508,144.423 86.035 C 142.590 84.221,139.307 81.722,139.069 81.960 C 139.012 82.017,138.921 87.396,138.867 93.913 L 138.770 105.762 138.253 106.864 C 136.007 111.654,128.204 112.050,125.334 107.520 C 124.391 106.030,124.370 105.731,124.375 93.507 C 124.378 87.196,124.316 81.994,124.238 81.945 C 124.160 81.897,123.425 82.296,122.606 82.831 M99.446 116.096 C 106.090 117.372,111.213 123.402,108.786 127.090 C 106.741 130.199,103.148 130.923,99.278 129.006 C 96.954 127.855,96.552 127.844,94.623 128.884 C 88.350 132.268,82.465 128.535,85.466 123.075 C 88.230 118.046,94.168 115.082,99.446 116.096 M186.789 154.102 C 186.789 155.122,186.822 155.540,186.862 155.029 C 186.903 154.519,186.903 153.684,186.862 153.174 C 186.822 152.664,186.789 153.081,186.789 154.102 M269.531 161.914 C 269.646 162.129,269.828 162.305,269.936 162.305 C 270.061 162.305,270.056 162.165,269.922 161.914 C 269.807 161.699,269.625 161.523,269.518 161.523 C 269.392 161.523,269.397 161.663,269.531 161.914 M169.141 172.717 C 169.141 172.751,169.426 173.037,169.775 173.352 L 170.410 173.926 169.837 173.291 C 169.302 172.699,169.141 172.566,169.141 172.717 " stroke="none" fill="#ffd2a6" fill-rule="evenodd"></path><path id="path4" d="M159.375 14.355 C 159.739 14.731,160.082 15.039,160.135 15.039 C 160.189 15.039,159.935 14.731,159.570 14.355 C 159.206 13.979,158.864 13.672,158.810 13.672 C 158.756 13.672,159.011 13.979,159.375 14.355 M149.208 14.600 L 148.535 15.332 149.268 14.659 C 149.949 14.032,150.090 13.867,149.941 13.867 C 149.908 13.867,149.578 14.197,149.208 14.600 M195.703 14.124 C 195.703 14.157,195.989 14.443,196.338 14.758 L 196.973 15.332 196.399 14.697 C 195.864 14.106,195.703 13.973,195.703 14.124 M161.421 32.227 C 161.421 40.337,161.445 43.655,161.475 39.600 C 161.504 35.544,161.504 28.909,161.475 24.854 C 161.445 20.798,161.421 24.116,161.421 32.227 M184.077 32.520 C 184.077 40.576,184.101 43.901,184.131 39.907 C 184.160 35.913,184.160 29.322,184.131 25.259 C 184.101 21.195,184.077 24.463,184.077 32.520 M233.686 33.496 C 233.686 40.908,233.710 43.912,233.740 40.171 C 233.770 36.430,233.770 30.366,233.740 26.695 C 233.710 23.023,233.686 26.084,233.686 33.496 M198.105 23.633 C 198.105 24.224,198.142 24.465,198.187 24.170 C 198.232 23.875,198.232 23.391,198.187 23.096 C 198.142 22.800,198.105 23.042,198.105 23.633 M220.199 30.566 C 220.199 32.715,220.228 33.620,220.263 32.579 C 220.298 31.537,220.298 29.779,220.263 28.672 C 220.228 27.566,220.199 28.418,220.199 30.566 M198.111 32.129 C 198.112 32.881,198.147 33.165,198.189 32.759 C 198.232 32.354,198.231 31.739,198.188 31.392 C 198.145 31.045,198.110 31.377,198.111 32.129 M198.126 42.383 C 198.126 44.155,198.156 44.880,198.192 43.994 C 198.228 43.108,198.228 41.658,198.192 40.771 C 198.156 39.885,198.126 40.610,198.126 42.383 M219.995 44.629 C 219.995 45.811,220.028 46.269,220.066 45.647 C 220.105 45.026,220.105 44.059,220.066 43.499 C 220.026 42.939,219.994 43.447,219.995 44.629 M185.156 49.866 C 185.156 49.899,185.442 50.185,185.791 50.501 L 186.426 51.074 185.852 50.439 C 185.317 49.848,185.156 49.715,185.156 49.866 M154.642 52.876 C 154.993 52.919,155.521 52.918,155.814 52.874 C 156.108 52.829,155.820 52.794,155.176 52.795 C 154.531 52.796,154.291 52.832,154.642 52.876 M226.318 52.876 C 226.667 52.919,227.239 52.919,227.588 52.876 C 227.937 52.832,227.651 52.797,226.953 52.797 C 226.255 52.797,225.969 52.832,226.318 52.876 M128.769 66.747 C 129.606 66.784,130.924 66.783,131.698 66.746 C 132.472 66.709,131.787 66.679,130.176 66.680 C 128.564 66.680,127.931 66.710,128.769 66.747 M256.700 66.748 C 257.969 66.782,259.990 66.781,261.193 66.747 C 262.395 66.713,261.357 66.685,258.887 66.685 C 256.416 66.685,255.432 66.713,256.700 66.748 M124.953 66.935 C 125.196 66.982,125.548 66.980,125.735 66.931 C 125.921 66.882,125.723 66.844,125.293 66.846 C 124.863 66.848,124.710 66.888,124.953 66.935 M134.622 66.937 C 134.919 66.982,135.358 66.981,135.598 66.934 C 135.839 66.888,135.596 66.851,135.059 66.853 C 134.521 66.854,134.325 66.892,134.622 66.937 M251.904 66.935 C 252.146 66.981,252.542 66.981,252.783 66.935 C 253.025 66.888,252.827 66.850,252.344 66.850 C 251.860 66.850,251.663 66.888,251.904 66.935 M264.893 66.932 C 265.081 66.981,265.388 66.981,265.576 66.932 C 265.764 66.882,265.610 66.842,265.234 66.842 C 264.858 66.842,264.705 66.882,264.893 66.932 M137.158 67.127 C 137.346 67.176,137.654 67.176,137.842 67.127 C 138.030 67.078,137.876 67.038,137.500 67.038 C 137.124 67.038,136.970 67.078,137.158 67.127 M138.575 82.224 C 138.503 82.650,138.470 88.120,138.502 94.380 C 138.569 107.429,138.663 106.674,136.742 108.461 C 135.238 109.860,133.889 110.414,131.641 110.559 L 129.785 110.678 131.498 110.710 C 134.316 110.763,137.193 109.125,138.253 106.864 L 138.770 105.762 138.873 93.848 C 138.983 81.152,138.964 81.752,139.258 81.934 C 139.365 82.000,139.453 82.008,139.453 81.952 C 139.453 81.314,138.688 81.551,138.575 82.224 M250.637 82.113 C 243.921 86.536,238.395 96.458,238.514 103.881 C 238.631 111.189,228.344 113.082,224.456 106.468 C 222.460 103.072,226.023 92.327,230.652 87.783 C 231.863 86.595,231.488 86.494,228.785 87.280 C 221.655 89.356,212.376 95.423,207.051 101.490 C 202.960 106.151,201.642 107.883,199.114 111.914 C 198.811 112.397,197.927 113.990,197.151 115.452 C 196.374 116.915,195.624 118.296,195.484 118.520 C 195.116 119.110,195.187 119.132,198.166 119.340 C 206.384 119.914,214.209 121.269,220.313 123.176 C 221.548 123.562,222.798 123.948,223.091 124.033 C 223.588 124.179,223.681 124.101,224.518 122.842 C 230.228 114.254,244.042 114.274,248.291 122.877 C 250.258 126.859,245.238 130.961,240.527 129.222 C 240.098 129.063,239.264 128.751,238.675 128.529 C 237.367 128.036,236.571 128.022,235.972 128.483 L 235.518 128.832 238.413 130.773 C 243.237 134.009,248.251 137.884,252.079 141.338 C 253.578 142.690,254.110 143.066,253.790 142.548 C 253.701 142.404,253.737 142.376,253.889 142.470 C 254.020 142.551,254.080 142.665,254.022 142.723 C 253.964 142.780,255.028 143.980,256.385 145.389 C 260.588 149.748,265.071 155.390,268.295 160.379 L 269.793 162.695 275.961 162.708 C 318.755 162.795,317.297 162.836,320.215 161.451 C 328.659 157.441,331.065 143.815,326.271 127.148 C 321.353 110.049,305.629 93.212,289.605 87.887 C 286.612 86.892,286.292 86.994,287.656 88.510 C 292.938 94.376,295.810 102.457,293.942 106.195 C 291.225 111.632,283.152 112.030,280.132 106.877 C 279.699 106.138,279.607 105.681,279.477 103.643 C 278.935 95.117,273.991 86.566,267.261 82.513 C 265.819 81.645,265.544 81.638,265.700 82.471 C 265.765 82.820,265.834 88.166,265.853 94.352 L 265.887 105.598 265.446 106.510 C 263.076 111.405,255.026 111.502,252.500 106.667 L 251.953 105.619 251.953 93.642 C 251.953 87.054,251.880 81.618,251.790 81.563 C 251.700 81.507,251.181 81.755,250.637 82.113 M122.900 82.444 C 122.235 82.871,122.019 83.157,122.607 82.834 C 123.056 82.587,123.758 82.044,123.633 82.041 C 123.579 82.039,123.250 82.221,122.900 82.444 M139.648 82.105 C 139.648 82.158,140.250 82.605,140.985 83.098 C 142.360 84.021,145.279 86.727,146.574 88.281 C 146.977 88.765,147.129 88.893,146.911 88.566 C 145.626 86.636,139.648 81.318,139.648 82.105 M124.449 82.227 C 124.255 82.585,124.401 105.095,124.602 105.859 C 125.114 107.803,127.360 110.047,129.199 110.453 C 129.542 110.529,129.282 110.337,128.570 109.990 C 127.181 109.312,125.819 108.040,125.160 106.806 L 124.707 105.957 124.604 94.043 C 124.548 87.490,124.478 82.173,124.449 82.227 M120.457 84.245 C 118.692 85.712,116.626 88.156,115.724 89.844 C 115.429 90.396,115.930 89.768,117.084 88.137 C 118.179 86.591,119.734 84.967,121.387 83.646 C 121.816 83.302,122.118 83.018,122.056 83.014 C 121.995 83.011,121.275 83.564,120.457 84.245 M159.570 86.968 C 159.570 87.105,159.944 87.617,160.400 88.106 C 160.857 88.595,161.118 88.846,160.980 88.665 C 160.712 88.312,160.500 87.500,160.675 87.500 C 160.733 87.500,161.058 87.626,161.396 87.781 C 161.735 87.935,162.583 88.295,163.281 88.581 C 170.317 91.459,177.843 96.691,183.746 102.805 C 186.524 105.683,186.812 106.123,186.363 106.800 C 185.838 107.589,183.360 112.267,181.167 116.610 L 179.140 120.623 177.395 120.870 C 175.897 121.082,172.019 122.011,167.899 123.146 C 167.270 123.319,166.735 123.433,166.711 123.400 C 166.687 123.367,166.204 122.662,165.638 121.833 C 164.062 119.525,160.222 116.602,158.768 116.602 C 158.630 116.602,159.215 116.941,160.069 117.356 C 162.695 118.632,164.937 120.665,166.036 122.765 C 166.587 123.816,166.266 123.820,170.410 122.711 C 173.866 121.786,176.635 121.154,178.125 120.949 L 179.199 120.801 181.348 116.599 C 184.022 111.368,185.616 108.379,186.373 107.176 C 187.091 106.033,187.099 106.049,184.389 103.250 C 176.899 95.516,171.606 91.789,162.731 87.997 C 159.389 86.569,159.570 86.628,159.570 86.968 M186.230 87.500 C 186.650 87.930,187.037 88.281,187.091 88.281 C 187.145 88.281,186.845 87.930,186.426 87.500 C 186.006 87.070,185.619 86.719,185.565 86.719 C 185.512 86.719,185.811 87.070,186.230 87.500 M202.333 87.451 L 201.660 88.184 202.393 87.511 C 202.795 87.140,203.125 86.811,203.125 86.778 C 203.125 86.629,202.960 86.769,202.333 87.451 M100.586 87.870 C 96.386 89.386,90.623 92.419,88.653 94.149 C 88.055 94.674,88.510 94.442,89.678 93.627 C 92.953 91.341,100.491 87.695,101.941 87.695 C 102.119 87.695,102.371 87.590,102.500 87.461 C 103.061 86.900,102.687 87.790,101.883 88.930 C 100.985 90.203,99.508 92.773,99.673 92.773 C 99.727 92.773,100.099 92.180,100.499 91.455 C 100.900 90.730,101.611 89.594,102.079 88.930 C 103.501 86.913,103.412 86.850,100.586 87.870 M315.625 87.952 C 315.625 87.985,315.911 88.271,316.260 88.587 L 316.895 89.160 316.321 88.525 C 315.786 87.934,315.625 87.801,315.625 87.952 M73.721 89.111 L 72.949 89.941 73.779 89.169 C 74.551 88.451,74.699 88.281,74.551 88.281 C 74.519 88.281,74.146 88.655,73.721 89.111 M199.994 89.600 L 198.730 90.918 200.049 89.654 C 200.774 88.959,201.367 88.366,201.367 88.336 C 201.367 88.192,201.168 88.375,199.994 89.600 M189.844 90.918 C 190.860 91.938,191.735 92.773,191.789 92.773 C 191.843 92.773,191.055 91.938,190.039 90.918 C 189.023 89.897,188.147 89.063,188.094 89.063 C 188.040 89.063,188.827 89.897,189.844 90.918 M162.541 91.114 C 163.198 92.135,163.772 92.934,163.817 92.889 C 163.904 92.802,161.574 89.258,161.430 89.258 C 161.384 89.258,161.884 90.093,162.541 91.114 M319.723 91.846 C 320.849 93.000,321.794 93.945,321.823 93.945 C 321.964 93.945,321.726 93.695,319.775 91.793 L 317.676 89.746 319.723 91.846 M148.656 91.504 C 149.000 92.148,149.365 92.764,149.467 92.871 C 149.752 93.173,148.705 91.164,148.347 90.723 C 148.173 90.508,148.312 90.859,148.656 91.504 M114.232 92.693 C 113.065 95.166,111.854 98.727,111.447 100.879 C 111.127 102.567,110.921 106.394,111.170 106.002 C 111.254 105.870,111.325 105.015,111.328 104.102 C 111.340 100.813,113.393 94.033,115.364 90.771 C 115.413 90.691,115.397 90.625,115.330 90.625 C 115.262 90.625,114.768 91.555,114.232 92.693 M195.605 93.945 C 194.327 95.237,194.253 95.269,193.668 94.775 C 193.262 94.434,193.262 94.434,193.634 94.873 C 194.169 95.506,194.309 95.450,195.703 94.043 C 196.395 93.345,196.917 92.773,196.863 92.773 C 196.809 92.773,196.243 93.301,195.605 93.945 M149.639 93.262 C 149.635 93.524,150.942 96.245,150.953 95.996 C 150.957 95.889,150.665 95.186,150.302 94.434 C 149.940 93.682,149.641 93.154,149.639 93.262 M164.396 94.233 C 164.684 94.821,164.953 95.269,164.993 95.229 C 165.080 95.141,164.095 93.164,163.964 93.164 C 163.913 93.164,164.107 93.645,164.396 94.233 M68.643 94.189 L 67.871 95.020 68.701 94.247 C 69.473 93.529,69.621 93.359,69.473 93.359 C 69.441 93.359,69.068 93.733,68.643 94.189 M87.402 95.037 L 86.816 95.540 87.451 95.120 C 87.800 94.889,88.086 94.662,88.086 94.616 C 88.086 94.469,88.003 94.520,87.402 95.037 M98.173 95.675 C 97.889 96.308,97.660 96.903,97.665 96.997 C 97.670 97.091,97.935 96.605,98.253 95.917 C 98.571 95.228,98.800 94.633,98.761 94.594 C 98.722 94.555,98.457 95.041,98.173 95.675 M85.742 96.306 L 84.863 97.102 85.791 96.379 C 86.604 95.745,86.845 95.506,86.670 95.508 C 86.643 95.509,86.226 95.867,85.742 96.306 M165.099 95.703 C 167.722 102.762,167.723 106.162,165.104 108.704 C 161.590 112.115,155.995 111.297,153.539 107.013 C 152.862 105.833,152.716 105.846,153.321 107.033 C 156.596 113.453,166.582 111.709,167.307 104.590 C 167.497 102.722,166.007 96.384,165.194 95.605 C 165.055 95.472,165.025 95.504,165.099 95.703 M150.982 96.403 C 150.990 96.690,152.125 99.729,152.138 99.497 C 152.144 99.382,151.929 98.642,151.661 97.854 C 151.198 96.493,150.970 96.006,150.982 96.403 M82.520 99.004 C 81.338 100.063,79.976 101.357,79.492 101.879 C 79.009 102.400,79.404 102.081,80.371 101.170 C 81.338 100.258,82.744 98.967,83.496 98.300 C 84.248 97.634,84.819 97.087,84.766 97.083 C 84.712 97.080,83.701 97.944,82.520 99.004 M97.191 98.270 C 96.544 100.582,96.478 100.945,96.395 102.637 L 96.309 104.395 96.501 102.689 C 96.606 101.752,96.899 100.170,97.152 99.174 C 97.646 97.229,97.676 96.540,97.191 98.270 M152.277 100.488 C 152.344 100.918,152.473 101.445,152.564 101.660 C 152.668 101.908,152.683 101.765,152.606 101.270 C 152.539 100.840,152.410 100.313,152.319 100.098 C 152.215 99.850,152.199 99.992,152.277 100.488 M152.633 103.189 C 152.561 103.761,152.579 104.614,152.672 105.084 C 152.814 105.805,152.841 105.641,152.841 104.044 C 152.841 101.867,152.812 101.749,152.633 103.189 M77.357 104.232 C 76.188 105.507,74.071 108.211,72.565 110.352 C 71.244 112.230,72.323 110.937,74.358 108.203 C 75.437 106.753,76.866 104.973,77.533 104.248 C 78.200 103.523,78.702 102.930,78.648 102.930 C 78.594 102.930,78.013 103.516,77.357 104.232 M96.579 105.215 C 97.063 109.113,103.257 112.381,106.543 110.472 C 106.865 110.285,106.953 110.191,106.738 110.264 C 102.461 111.717,97.939 109.467,96.735 105.287 L 96.478 104.395 96.579 105.215 M110.178 107.443 C 109.815 107.972,108.993 108.799,108.352 109.281 C 107.712 109.762,107.254 110.156,107.336 110.156 C 107.922 110.156,111.210 106.843,110.912 106.552 C 110.872 106.513,110.542 106.914,110.178 107.443 M71.019 112.598 C 70.845 112.866,70.561 113.328,70.387 113.623 L 70.071 114.160 70.464 113.685 C 70.928 113.123,71.543 112.109,71.420 112.109 C 71.373 112.109,71.192 112.329,71.019 112.598 M69.629 114.844 C 69.462 115.166,69.370 115.430,69.424 115.430 C 69.477 115.430,69.658 115.166,69.824 114.844 C 69.991 114.521,70.083 114.258,70.030 114.258 C 69.976 114.258,69.796 114.521,69.629 114.844 M68.750 116.406 C 68.531 116.836,68.395 117.188,68.449 117.188 C 68.503 117.188,68.726 116.836,68.945 116.406 C 69.165 115.977,69.300 115.625,69.246 115.625 C 69.193 115.625,68.969 115.977,68.750 116.406 M95.703 115.949 C 94.035 116.207,90.991 117.340,90.699 117.811 C 90.637 117.913,91.014 117.778,91.538 117.513 C 97.129 114.679,104.373 116.505,108.067 121.680 C 108.399 122.145,108.399 122.138,108.066 121.523 C 106.209 118.098,99.977 115.288,95.703 115.949 M151.214 116.382 C 149.919 116.765,147.525 117.902,147.322 118.230 C 147.256 118.337,147.678 118.154,148.259 117.824 C 150.829 116.364,155.055 115.788,158.008 116.496 L 158.496 116.613 158.008 116.387 C 157.108 115.973,152.609 115.969,151.214 116.382 M298.002 116.290 C 302.056 116.899,305.500 119.464,307.432 123.314 C 308.563 125.567,308.447 126.815,306.951 128.471 C 305.007 130.622,301.929 130.711,297.862 128.732 C 295.716 127.689,295.510 127.699,292.671 128.998 C 286.858 131.657,281.129 127.963,283.635 123.172 C 286.158 118.347,292.254 115.427,298.002 116.290 M89.708 118.471 L 89.160 118.974 89.795 118.532 C 90.144 118.289,90.430 118.063,90.430 118.030 C 90.430 117.876,90.214 118.008,89.708 118.471 M146.282 118.959 L 145.605 119.559 146.338 119.034 C 146.985 118.569,147.196 118.359,147.014 118.359 C 146.983 118.359,146.654 118.629,146.282 118.959 M87.596 120.253 C 86.884 120.972,86.213 121.741,86.105 121.962 C 85.997 122.183,86.243 121.968,86.652 121.484 C 87.061 121.001,87.792 120.233,88.278 119.777 C 88.763 119.322,89.100 118.949,89.025 118.947 C 88.951 118.946,88.308 119.534,87.596 120.253 M65.870 122.402 C 58.511 139.839,58.917 154.805,66.895 160.192 C 67.217 160.410,67.106 160.263,66.648 159.866 C 63.788 157.384,61.727 153.632,61.028 149.633 C 59.884 143.085,62.241 130.885,66.481 121.406 C 66.765 120.771,66.962 120.218,66.920 120.175 C 66.877 120.132,66.405 121.135,65.870 122.402 M143.856 121.315 C 143.340 121.928,142.575 123.286,142.582 123.576 C 142.584 123.661,142.850 123.250,143.174 122.662 C 143.498 122.074,143.951 121.393,144.181 121.148 C 144.411 120.903,144.548 120.703,144.485 120.703 C 144.422 120.703,144.139 120.979,143.856 121.315 M108.817 123.162 C 109.038 123.662,109.288 124.477,109.372 124.975 C 109.498 125.724,109.528 125.771,109.547 125.251 C 109.571 124.597,108.892 122.548,108.589 122.360 C 108.493 122.301,108.596 122.662,108.817 123.162 M84.974 123.974 C 84.839 124.270,84.696 124.995,84.657 125.586 L 84.586 126.660 84.766 125.537 C 84.866 124.920,85.045 124.231,85.165 124.007 C 85.285 123.783,85.346 123.563,85.301 123.518 C 85.256 123.473,85.109 123.678,84.974 123.974 M142.311 124.268 C 142.159 124.832,142.178 125.785,142.348 126.213 C 142.421 126.397,142.480 125.936,142.480 125.188 C 142.480 123.672,142.476 123.649,142.311 124.268 M108.824 126.737 C 107.041 129.909,103.333 130.700,99.342 128.760 C 96.772 127.510,96.975 127.511,94.465 128.732 C 90.728 130.549,88.422 130.485,86.255 128.504 C 85.661 127.961,85.119 127.340,85.051 127.123 C 84.982 126.906,84.883 126.771,84.831 126.823 C 84.641 127.013,85.348 128.077,86.142 128.793 C 88.286 130.730,91.144 130.761,94.623 128.884 C 96.552 127.844,96.954 127.855,99.278 129.006 C 102.419 130.562,104.984 130.457,107.318 128.677 C 108.106 128.076,109.514 126.246,109.330 126.061 C 109.285 126.017,109.058 126.321,108.824 126.737 M142.578 126.856 C 142.578 128.509,147.753 130.657,149.514 129.734 C 149.863 129.551,150.186 129.521,150.539 129.639 L 151.054 129.811 150.092 130.482 C 149.563 130.851,148.249 131.697,147.173 132.363 C 145.180 133.595,141.563 136.200,141.147 136.703 C 141.021 136.855,141.857 136.283,143.004 135.433 C 144.151 134.583,145.601 133.583,146.226 133.211 C 152.101 129.719,153.728 128.158,150.478 129.133 C 147.643 129.983,144.436 129.264,143.150 127.488 C 142.835 127.054,142.578 126.770,142.578 126.856 M186.427 133.982 C 186.359 134.093,186.437 134.126,186.609 134.059 C 186.879 133.956,186.917 135.188,186.963 145.634 L 187.015 157.324 187.062 145.557 C 187.110 133.587,187.074 132.935,186.427 133.982 M201.414 144.971 L 201.461 155.957 201.514 145.066 L 201.566 134.176 202.248 134.461 C 202.623 134.617,202.930 134.708,202.930 134.663 C 202.930 134.543,201.813 133.984,201.572 133.984 C 201.431 133.984,201.382 137.400,201.414 144.971 M182.617 136.535 C 181.353 137.516,180.598 138.199,181.354 137.677 C 182.146 137.131,183.984 135.693,183.984 135.621 C 183.984 135.484,183.892 135.546,182.617 136.535 M204.297 135.599 C 204.297 135.642,204.670 135.974,205.127 136.336 C 205.583 136.699,205.833 136.842,205.681 136.653 C 205.396 136.298,204.297 135.461,204.297 135.599 M47.712 136.465 C 47.474 136.712,47.351 136.914,47.438 136.914 C 47.628 136.914,48.339 136.155,48.225 136.073 C 48.181 136.041,47.950 136.218,47.712 136.465 M139.355 138.046 C 137.710 139.382,130.748 146.186,129.623 147.559 C 129.183 148.096,130.323 146.997,132.157 145.117 C 133.991 143.237,136.442 140.864,137.604 139.844 C 140.872 136.973,140.924 136.925,140.820 136.931 C 140.767 136.934,140.107 137.436,139.355 138.046 M206.828 137.744 C 207.637 138.606,207.813 138.762,207.813 138.615 C 207.813 138.584,207.395 138.166,206.885 137.687 L 205.957 136.816 206.828 137.744 M179.876 139.209 L 178.809 140.332 179.932 139.264 C 180.975 138.273,181.144 138.086,180.999 138.086 C 180.969 138.086,180.463 138.591,179.876 139.209 M208.398 139.551 C 208.763 139.927,209.105 140.234,209.159 140.234 C 209.212 140.234,208.958 139.927,208.594 139.551 C 208.229 139.175,207.887 138.867,207.834 138.867 C 207.780 138.867,208.034 139.175,208.398 139.551 M178.320 141.016 C 178.091 141.338,177.947 141.602,178.001 141.602 C 178.054 141.602,178.286 141.338,178.516 141.016 C 178.745 140.693,178.889 140.430,178.835 140.430 C 178.781 140.430,178.550 140.693,178.320 141.016 M162.527 141.044 C 162.167 141.148,161.909 141.271,161.954 141.316 C 162.000 141.362,162.317 141.319,162.659 141.221 C 163.059 141.107,163.281 141.112,163.281 141.236 C 163.281 141.342,163.369 141.375,163.477 141.309 C 164.137 140.900,163.574 140.743,162.527 141.044 M223.675 141.261 C 224.146 142.090,225.097 143.345,225.261 143.352 C 225.350 143.356,225.065 142.908,224.626 142.357 C 223.387 140.801,223.404 140.791,225.713 141.684 C 232.809 144.428,239.024 148.106,243.550 152.238 C 244.251 152.878,244.517 153.067,244.141 152.658 C 240.771 148.989,233.403 144.510,225.760 141.486 C 223.710 140.674,223.318 140.632,223.675 141.261 M210.051 141.748 C 210.352 142.205,210.636 142.578,210.682 142.578 C 210.822 142.578,210.075 141.389,209.781 141.147 C 209.629 141.021,209.750 141.292,210.051 141.748 M162.853 141.943 C 162.075 142.850,159.585 147.070,159.828 147.070 C 159.882 147.070,160.297 146.389,160.750 145.557 C 161.204 144.724,161.956 143.494,162.422 142.822 C 163.258 141.617,163.424 141.278,162.853 141.943 M177.185 142.627 C 176.873 143.083,176.472 143.765,176.294 144.141 C 175.944 144.881,176.078 144.703,177.193 142.945 C 178.033 141.621,178.027 141.396,177.185 142.627 M156.641 143.555 C 156.265 143.761,156.027 143.933,156.113 143.937 C 156.320 143.948,157.422 143.375,157.422 143.257 C 157.422 143.129,157.410 143.133,156.641 143.555 M225.567 143.848 C 225.679 144.063,225.954 144.458,226.179 144.727 C 226.459 145.060,226.524 145.091,226.386 144.824 C 226.274 144.609,225.999 144.214,225.774 143.945 C 225.494 143.612,225.429 143.581,225.567 143.848 M155.225 144.252 C 154.494 144.648,154.539 144.813,155.273 144.434 C 155.596 144.267,155.859 144.089,155.859 144.038 C 155.859 143.912,155.838 143.919,155.225 144.252 M153.857 145.034 C 153.127 145.430,153.172 145.595,153.906 145.215 C 154.229 145.048,154.492 144.870,154.492 144.819 C 154.492 144.694,154.471 144.701,153.857 145.034 M342.709 145.877 C 342.637 146.238,342.588 146.720,342.600 146.948 C 342.611 147.177,342.699 146.968,342.794 146.484 C 342.889 146.001,342.938 145.519,342.904 145.413 C 342.869 145.307,342.782 145.516,342.709 145.877 M152.393 145.921 C 151.727 146.347,151.511 146.634,152.100 146.310 C 152.548 146.064,153.250 145.521,153.125 145.517 C 153.071 145.516,152.742 145.697,152.393 145.921 M212.319 145.801 C 212.319 145.908,212.444 146.216,212.598 146.484 C 212.751 146.753,212.877 146.885,212.877 146.777 C 212.877 146.670,212.751 146.362,212.598 146.094 C 212.444 145.825,212.319 145.693,212.319 145.801 M346.680 146.777 C 346.948 146.931,347.256 147.056,347.363 147.056 C 347.471 147.056,347.339 146.931,347.070 146.777 C 346.802 146.624,346.494 146.498,346.387 146.498 C 346.279 146.498,346.411 146.624,346.680 146.777 M150.293 147.380 L 149.707 147.884 150.342 147.464 C 150.691 147.233,150.977 147.006,150.977 146.959 C 150.977 146.813,150.894 146.864,150.293 147.380 M174.242 148.323 C 173.118 151.327,172.474 154.188,172.463 156.234 C 172.458 157.008,172.645 156.135,172.846 154.447 C 173.082 152.462,173.445 151.022,174.286 148.738 C 174.561 147.990,174.755 147.346,174.717 147.308 C 174.679 147.270,174.465 147.727,174.242 148.323 M148.486 148.645 C 147.922 149.078,147.461 149.475,147.461 149.527 C 147.461 149.579,147.944 149.257,148.535 148.811 C 149.468 148.107,149.752 147.842,149.561 147.855 C 149.534 147.857,149.050 148.212,148.486 148.645 M350.391 148.533 C 350.391 148.667,351.587 149.260,351.676 149.171 C 351.718 149.128,351.446 148.947,351.072 148.769 C 350.697 148.590,350.391 148.484,350.391 148.533 M128.114 149.365 L 127.441 150.098 128.174 149.425 C 128.577 149.054,128.906 148.725,128.906 148.692 C 128.906 148.543,128.741 148.684,128.114 149.365 M228.529 148.926 C 228.529 149.033,228.655 149.341,228.809 149.609 C 228.962 149.878,229.088 150.010,229.088 149.902 C 229.088 149.795,228.962 149.487,228.809 149.219 C 228.655 148.950,228.529 148.818,228.529 148.926 M47.702 150.195 C 47.702 150.571,47.742 150.725,47.791 150.537 C 47.840 150.349,47.840 150.042,47.791 149.854 C 47.742 149.666,47.702 149.819,47.702 150.195 M146.570 150.244 L 145.996 150.879 146.631 150.305 C 146.980 149.990,147.266 149.704,147.266 149.670 C 147.266 149.520,147.104 149.652,146.570 150.244 M25.481 150.830 L 24.512 151.855 25.537 150.886 C 26.101 150.353,26.563 149.892,26.563 149.861 C 26.563 149.715,26.382 149.877,25.481 150.830 M158.119 150.797 C 157.950 151.365,157.819 151.967,157.826 152.135 C 157.834 152.304,158.003 151.871,158.202 151.173 C 158.401 150.476,158.533 149.874,158.495 149.836 C 158.456 149.798,158.287 150.230,158.119 150.797 M229.117 150.220 C 229.109 150.287,229.240 150.726,229.410 151.196 C 229.579 151.666,229.835 152.622,229.977 153.320 C 230.120 154.019,230.245 154.367,230.255 154.094 C 230.284 153.311,229.197 149.609,229.117 150.220 M375.192 152.197 C 376.318 153.352,377.263 154.297,377.291 154.297 C 377.432 154.297,377.194 154.047,375.244 152.145 L 373.145 150.098 375.192 152.197 M354.492 150.674 C 354.492 150.727,354.756 150.908,355.078 151.074 C 355.400 151.241,355.664 151.333,355.664 151.280 C 355.664 151.226,355.400 151.046,355.078 150.879 C 354.756 150.712,354.492 150.620,354.492 150.674 M144.922 151.660 C 144.447 152.144,144.103 152.539,144.157 152.539 C 144.211 152.539,144.643 152.144,145.117 151.660 C 145.592 151.177,145.936 150.781,145.882 150.781 C 145.828 150.781,145.396 151.177,144.922 151.660 M124.847 153.467 C 122.766 156.230,121.153 158.594,121.348 158.594 C 121.392 158.594,121.763 158.088,122.170 157.471 C 122.578 156.853,123.667 155.337,124.590 154.103 C 125.514 152.868,126.384 151.704,126.525 151.515 C 126.665 151.326,126.734 151.172,126.677 151.172 C 126.621 151.172,125.797 152.205,124.847 153.467 M214.486 151.563 C 214.496 152.070,214.804 152.904,214.811 152.441 C 214.814 152.227,214.741 151.875,214.648 151.660 C 214.546 151.421,214.483 151.383,214.486 151.563 M356.152 151.664 C 356.367 151.839,356.719 152.068,356.934 152.174 L 357.324 152.365 356.934 152.047 C 356.719 151.872,356.367 151.643,356.152 151.537 L 355.762 151.346 356.152 151.664 M23.138 153.174 L 21.973 154.395 23.193 153.229 C 24.327 152.146,24.503 151.953,24.359 151.953 C 24.329 151.953,23.780 152.502,23.138 153.174 M48.080 152.246 C 48.077 152.461,48.150 152.813,48.242 153.027 C 48.456 153.525,48.456 153.012,48.242 152.344 C 48.116 151.951,48.085 151.932,48.080 152.246 M157.548 153.265 C 157.481 153.672,157.437 154.531,157.451 155.176 C 157.472 156.185,157.498 156.092,157.639 154.504 C 157.808 152.599,157.762 151.971,157.548 153.265 M142.667 153.760 L 141.895 154.590 142.725 153.818 C 143.497 153.100,143.644 152.930,143.497 152.930 C 143.465 152.930,143.091 153.303,142.667 153.760 M214.889 153.516 C 214.889 153.892,214.929 154.045,214.978 153.857 C 215.028 153.669,215.028 153.362,214.978 153.174 C 214.929 152.986,214.889 153.140,214.889 153.516 M246.582 155.078 C 247.544 156.045,248.376 156.836,248.429 156.836 C 248.483 156.836,247.740 156.045,246.777 155.078 C 245.815 154.111,244.984 153.320,244.930 153.320 C 244.876 153.320,245.620 154.111,246.582 155.078 M359.570 153.772 C 359.570 153.817,359.944 154.101,360.400 154.402 C 360.857 154.703,361.127 154.824,361.001 154.672 C 360.759 154.379,359.570 153.631,359.570 153.772 M215.100 155.371 C 215.101 156.016,215.137 156.256,215.181 155.905 C 215.224 155.554,215.223 155.026,215.179 154.733 C 215.134 154.439,215.098 154.727,215.100 155.371 M48.828 154.941 C 48.828 155.191,49.650 157.251,49.721 157.180 C 49.762 157.139,49.614 156.627,49.392 156.043 C 49.005 155.024,48.828 154.677,48.828 154.941 M139.929 156.689 L 139.355 157.324 139.990 156.751 C 140.339 156.435,140.625 156.149,140.625 156.116 C 140.625 155.965,140.464 156.098,139.929 156.689 M49.805 157.493 C 49.805 157.705,50.970 159.961,51.080 159.961 C 51.134 159.961,50.902 159.412,50.566 158.740 C 49.928 157.468,49.805 157.266,49.805 157.493 M248.828 157.483 C 248.828 157.517,249.114 157.802,249.463 158.118 L 250.098 158.691 249.524 158.057 C 248.989 157.465,248.828 157.332,248.828 157.483 M171.781 157.998 C 171.709 158.223,171.153 158.955,170.545 159.624 C 169.562 160.706,169.761 160.718,170.820 159.641 C 171.367 159.084,172.141 157.818,172.013 157.690 C 171.957 157.634,171.852 157.772,171.781 157.998 M215.918 158.398 C 216.085 158.721,216.265 158.984,216.319 158.984 C 216.372 158.984,216.280 158.721,216.113 158.398 C 215.947 158.076,215.766 157.813,215.713 157.813 C 215.659 157.813,215.751 158.076,215.918 158.398 M200.618 158.503 C 200.494 158.776,199.977 159.458,199.470 160.017 L 198.548 161.035 199.384 160.254 C 200.229 159.464,201.095 158.257,200.933 158.094 C 200.884 158.046,200.743 158.230,200.618 158.503 M159.570 160.025 C 161.121 161.649,162.309 162.177,164.535 162.230 L 166.309 162.272 164.551 162.126 C 162.342 161.943,161.289 161.485,159.711 160.025 L 158.496 158.899 159.570 160.025 M188.379 159.751 C 189.253 160.697,191.300 162.113,191.778 162.102 C 191.950 162.098,191.624 161.870,191.054 161.594 C 190.485 161.319,189.474 160.601,188.808 160.000 C 187.826 159.112,187.745 159.065,188.379 159.751 M368.747 160.986 C 369.873 162.141,370.817 163.086,370.846 163.086 C 370.987 163.086,370.749 162.836,368.799 160.934 L 366.699 158.887 368.747 160.986 M216.756 159.633 C 217.717 160.918,220.150 162.327,221.345 162.292 C 221.583 162.285,221.297 162.150,220.710 161.992 C 219.485 161.663,218.109 160.834,217.065 159.798 C 216.538 159.275,216.455 159.231,216.756 159.633 M228.062 160.062 C 227.544 160.539,226.577 161.199,225.914 161.529 C 225.250 161.859,224.927 162.072,225.195 162.003 C 225.984 161.800,227.680 160.716,228.459 159.919 C 229.435 158.920,229.218 158.998,228.062 160.062 M119.592 161.377 L 119.043 162.402 95.809 162.452 C 70.078 162.507,71.585 162.575,68.848 161.226 C 68.072 160.844,67.692 160.720,67.969 160.938 C 68.774 161.574,71.398 162.497,73.005 162.709 C 75.576 163.048,118.604 162.864,119.028 162.512 C 119.357 162.239,120.408 160.352,120.231 160.352 C 120.182 160.352,119.895 160.813,119.592 161.377 M29.872 162.061 L 29.199 162.793 29.932 162.120 C 30.613 161.493,30.754 161.328,30.605 161.328 C 30.572 161.328,30.242 161.658,29.872 162.061 M166.992 161.816 C 166.616 161.961,166.440 162.082,166.602 162.086 C 166.763 162.089,167.158 161.971,167.480 161.823 C 168.235 161.478,167.884 161.473,166.992 161.816 M269.922 161.914 C 270.056 162.165,270.061 162.305,269.936 162.305 C 269.828 162.305,269.646 162.129,269.531 161.914 C 269.397 161.663,269.392 161.523,269.518 161.523 C 269.625 161.523,269.807 161.699,269.922 161.914 M195.215 162.109 L 194.434 162.249 195.117 162.263 C 195.493 162.271,195.977 162.202,196.191 162.109 C 196.652 161.912,196.319 161.912,195.215 162.109 M336.328 162.695 C 336.099 163.018,335.955 163.281,336.009 163.281 C 336.062 163.281,336.294 163.018,336.523 162.695 C 336.753 162.373,336.897 162.109,336.843 162.109 C 336.789 162.109,336.558 162.373,336.328 162.695 M222.217 162.443 C 222.458 162.489,222.854 162.489,223.096 162.443 C 223.337 162.396,223.140 162.358,222.656 162.358 C 222.173 162.358,221.975 162.396,222.217 162.443 M134.222 164.111 C 133.509 165.164,133.355 165.430,133.457 165.430 C 133.502 165.430,133.859 164.946,134.252 164.355 C 134.644 163.765,134.924 163.281,134.875 163.281 C 134.825 163.281,134.531 163.655,134.222 164.111 M55.273 166.272 C 55.273 166.306,55.559 166.591,55.908 166.907 L 56.543 167.480 55.969 166.846 C 55.435 166.254,55.273 166.121,55.273 166.272 M331.538 168.408 L 330.176 169.824 331.592 168.462 C 332.907 167.197,333.097 166.992,332.954 166.992 C 332.924 166.992,332.287 167.629,331.538 168.408 M256.348 167.969 C 256.514 168.291,256.695 168.555,256.748 168.555 C 256.802 168.555,256.710 168.291,256.543 167.969 C 256.376 167.646,256.196 167.383,256.142 167.383 C 256.089 167.383,256.181 167.646,256.348 167.969 M219.912 169.433 C 218.738 169.667,216.016 170.742,216.016 170.972 C 216.016 171.025,216.609 170.800,217.334 170.471 C 218.992 169.719,221.359 169.288,223.145 169.412 C 224.287 169.491,224.367 169.479,223.633 169.338 C 222.426 169.107,221.418 169.132,219.912 169.433 M157.813 169.535 C 157.509 169.634,157.768 169.654,158.496 169.586 C 159.141 169.526,159.705 169.445,159.749 169.406 C 159.907 169.270,158.295 169.377,157.813 169.535 M161.672 169.474 C 161.915 169.521,162.267 169.519,162.453 169.470 C 162.640 169.421,162.441 169.383,162.012 169.385 C 161.582 169.387,161.429 169.427,161.672 169.474 M225.391 169.795 C 225.874 169.937,226.687 170.239,227.197 170.465 C 227.708 170.691,228.125 170.833,228.125 170.779 C 228.125 170.590,226.017 169.752,225.269 169.645 C 224.526 169.538,224.528 169.540,225.391 169.795 M59.055 169.877 C 59.209 170.127,60.352 170.973,60.352 170.837 C 60.352 170.789,60.029 170.503,59.635 170.203 C 59.240 169.902,58.979 169.755,59.055 169.877 M155.029 170.521 C 154.626 170.734,154.297 170.951,154.297 171.005 C 154.297 171.092,155.840 170.371,156.038 170.191 C 156.263 169.987,155.676 170.179,155.029 170.521 M164.860 170.191 C 165.060 170.372,166.602 171.092,166.602 171.004 C 166.602 170.893,165.128 170.117,164.917 170.117 C 164.841 170.117,164.815 170.150,164.860 170.191 M258.342 171.770 C 258.739 172.572,259.095 173.197,259.134 173.158 C 259.221 173.071,257.844 170.313,257.714 170.313 C 257.663 170.313,257.945 170.969,258.342 171.770 M129.971 171.503 C 129.799 171.835,129.693 172.141,129.736 172.184 C 129.778 172.226,129.959 171.954,130.138 171.580 C 130.539 170.737,130.400 170.673,129.971 171.503 M228.591 171.135 C 231.234 172.941,232.466 174.248,233.427 176.270 C 233.733 176.914,233.984 177.322,233.984 177.176 C 233.985 175.963,230.878 172.253,229.089 171.331 C 228.613 171.085,228.388 170.997,228.591 171.135 M13.721 171.777 C 13.723 172.207,13.763 172.360,13.810 172.117 C 13.857 171.874,13.855 171.522,13.806 171.336 C 13.757 171.149,13.719 171.348,13.721 171.777 M166.797 171.154 C 166.797 171.200,167.170 171.480,167.627 171.776 C 168.083 172.072,168.682 172.501,168.957 172.730 C 169.232 172.958,169.132 172.837,168.736 172.461 C 168.062 171.822,166.797 170.969,166.797 171.154 M214.873 171.681 C 214.427 172.004,214.063 172.316,214.063 172.374 C 214.063 172.466,215.163 171.717,215.713 171.251 C 216.175 170.859,215.604 171.152,214.873 171.681 M385.983 172.070 C 385.983 172.446,386.023 172.600,386.072 172.412 C 386.121 172.224,386.121 171.917,386.072 171.729 C 386.023 171.541,385.983 171.694,385.983 172.070 M375.631 172.656 C 375.631 173.032,375.671 173.186,375.721 172.998 C 375.770 172.810,375.770 172.502,375.721 172.314 C 375.671 172.126,375.631 172.280,375.631 172.656 M212.786 173.486 L 211.816 174.512 212.842 173.542 C 213.406 173.009,213.867 172.548,213.867 172.517 C 213.867 172.371,213.686 172.534,212.786 173.486 M24.678 175.000 C 24.678 175.913,24.711 176.287,24.752 175.830 C 24.794 175.374,24.794 174.626,24.752 174.170 C 24.711 173.713,24.678 174.087,24.678 175.000 M170.310 174.122 C 171.087 175.059,171.153 175.120,170.940 174.705 C 170.830 174.489,170.533 174.138,170.282 173.925 C 169.840 173.552,169.841 173.559,170.310 174.122 M386.197 174.902 C 386.198 175.654,386.233 175.938,386.275 175.533 C 386.318 175.128,386.317 174.512,386.274 174.166 C 386.231 173.819,386.196 174.150,386.197 174.902 M259.389 173.926 C 259.389 174.033,259.514 174.341,259.668 174.609 C 259.821 174.878,259.947 175.010,259.947 174.902 C 259.947 174.795,259.821 174.487,259.668 174.219 C 259.514 173.950,259.389 173.818,259.389 173.926 M66.797 174.707 C 67.065 174.861,67.373 174.986,67.480 174.986 C 67.588 174.986,67.456 174.861,67.188 174.707 C 66.919 174.554,66.611 174.428,66.504 174.428 C 66.396 174.428,66.528 174.554,66.797 174.707 M149.657 175.244 C 148.693 176.448,148.189 178.832,148.622 180.144 C 149.074 181.513,151.421 183.406,152.637 183.382 C 152.852 183.378,152.599 183.232,152.076 183.057 C 148.995 182.031,147.811 178.972,149.376 176.083 C 149.956 175.012,150.037 174.770,149.657 175.244 M375.635 175.684 C 375.637 176.113,375.677 176.266,375.724 176.023 C 375.771 175.780,375.769 175.429,375.720 175.242 C 375.671 175.055,375.633 175.254,375.635 175.684 M171.546 176.152 C 171.781 176.678,172.000 177.036,172.033 176.948 C 172.096 176.780,171.342 175.195,171.200 175.195 C 171.155 175.195,171.311 175.626,171.546 176.152 M69.043 175.488 C 69.150 175.539,69.656 175.705,70.166 175.857 C 71.113 176.139,71.449 176.101,70.654 175.801 C 70.172 175.619,68.729 175.339,69.043 175.488 M210.650 176.357 C 210.486 176.674,210.359 177.092,210.368 177.285 C 210.380 177.519,210.436 177.469,210.537 177.137 C 210.620 176.862,210.791 176.445,210.917 176.209 C 211.043 175.974,211.102 175.781,211.047 175.781 C 210.992 175.781,210.813 176.041,210.650 176.357 M127.364 177.548 C 126.699 179.289,126.466 180.078,126.618 180.078 C 126.672 180.078,126.955 179.353,127.248 178.467 C 127.540 177.581,127.864 176.694,127.968 176.497 C 128.072 176.300,128.115 176.097,128.065 176.046 C 128.014 175.996,127.699 176.671,127.364 177.548 M13.717 177.148 C 13.717 177.524,13.757 177.678,13.807 177.490 C 13.856 177.302,13.856 176.995,13.807 176.807 C 13.757 176.619,13.717 176.772,13.717 177.148 M234.016 178.223 C 233.996 178.652,233.934 179.224,233.879 179.492 L 233.778 179.980 233.988 179.499 C 234.104 179.234,234.165 178.663,234.125 178.230 L 234.053 177.441 234.016 178.223 M261.049 178.125 C 261.121 178.394,261.262 178.745,261.361 178.906 C 261.487 179.110,261.502 179.050,261.411 178.711 C 261.340 178.442,261.199 178.091,261.100 177.930 C 260.974 177.726,260.959 177.786,261.049 178.125 M172.266 178.489 C 172.266 178.726,172.134 179.246,171.974 179.645 C 171.718 180.281,171.717 180.325,171.971 179.995 C 172.296 179.574,172.573 178.367,172.387 178.181 C 172.320 178.114,172.266 178.253,172.266 178.489 M126.013 181.686 C 124.047 188.450,123.155 195.919,123.769 200.484 C 123.875 201.273,123.926 200.071,123.926 196.773 C 123.926 191.290,124.476 187.657,126.199 181.768 C 126.414 181.033,126.553 180.394,126.508 180.349 C 126.463 180.304,126.240 180.906,126.013 181.686 M170.984 181.104 L 170.410 181.738 171.045 181.165 C 171.394 180.849,171.680 180.563,171.680 180.530 C 171.680 180.379,171.519 180.512,170.984 181.104 M233.002 181.009 C 232.737 181.307,232.256 181.753,231.934 182.000 C 231.245 182.530,231.687 182.334,232.474 181.761 C 232.932 181.427,233.726 180.469,233.544 180.469 C 233.512 180.469,233.268 180.712,233.002 181.009 M211.621 181.150 C 212.307 181.758,213.598 182.619,213.814 182.613 C 213.897 182.611,213.600 182.370,213.154 182.076 C 212.707 181.783,212.048 181.338,211.689 181.087 L 211.035 180.632 211.621 181.150 M158.496 182.140 C 156.636 182.961,155.125 183.386,153.914 183.431 C 153.039 183.464,153.037 183.465,153.776 183.542 C 154.851 183.653,156.166 183.324,158.317 182.405 C 160.404 181.513,160.692 181.507,162.394 182.312 C 162.943 182.571,163.652 182.835,163.971 182.897 C 164.290 182.959,164.419 182.956,164.258 182.889 C 164.097 182.822,163.295 182.470,162.475 182.107 C 160.628 181.286,160.426 181.288,158.496 182.140 M221.094 181.836 C 220.718 182.042,220.498 182.211,220.605 182.211 C 220.713 182.212,221.021 182.087,221.289 181.934 C 222.058 181.494,222.704 181.585,224.785 182.424 C 227.467 183.505,230.546 183.599,231.151 182.619 C 231.202 182.537,230.655 182.649,229.935 182.869 C 228.300 183.368,227.016 183.195,224.610 182.152 C 222.774 181.357,222.082 181.295,221.094 181.836 M219.434 182.527 C 219.111 182.674,218.979 182.796,219.141 182.797 C 219.302 182.798,219.653 182.673,219.922 182.520 C 220.539 182.167,220.210 182.171,219.434 182.527 M167.969 182.715 C 167.593 182.860,167.417 182.981,167.578 182.984 C 167.739 182.987,168.135 182.869,168.457 182.722 C 169.211 182.377,168.860 182.371,167.969 182.715 M262.527 182.617 C 262.527 182.778,262.603 183.086,262.695 183.301 C 262.801 183.547,262.863 183.583,262.863 183.398 C 262.863 183.237,262.788 182.930,262.695 182.715 C 262.590 182.469,262.527 182.433,262.527 182.617 M165.181 183.149 C 165.528 183.192,166.143 183.193,166.548 183.150 C 166.954 183.108,166.670 183.073,165.918 183.072 C 165.166 183.071,164.834 183.106,165.181 183.149 M215.962 183.149 C 216.309 183.192,216.924 183.193,217.330 183.150 C 217.735 183.108,217.451 183.073,216.699 183.072 C 215.947 183.071,215.616 183.106,215.962 183.149 M263.125 184.863 C 263.125 185.078,263.195 185.474,263.281 185.742 C 263.405 186.129,263.438 186.149,263.438 185.840 C 263.438 185.625,263.367 185.229,263.281 184.961 C 263.157 184.574,263.125 184.554,263.125 184.863 M263.516 186.621 C 263.516 186.836,263.586 187.231,263.672 187.500 C 263.796 187.887,263.828 187.907,263.828 187.598 C 263.828 187.383,263.758 186.987,263.672 186.719 C 263.548 186.332,263.516 186.312,263.516 186.621 M31.055 188.342 C 31.055 188.376,31.340 188.662,31.689 188.977 L 32.324 189.551 31.751 188.916 C 31.216 188.324,31.055 188.191,31.055 188.342 M367.471 189.697 L 366.699 190.527 367.529 189.755 C 368.301 189.037,368.449 188.867,368.301 188.867 C 368.269 188.867,367.896 189.241,367.471 189.697 M264.096 189.355 C 264.089 189.570,264.208 190.625,264.358 191.699 L 264.633 193.652 264.527 192.090 C 264.422 190.536,264.118 188.610,264.096 189.355 M33.203 190.295 C 33.203 190.329,33.489 190.615,33.838 190.930 L 34.473 191.504 33.899 190.869 C 33.364 190.277,33.203 190.145,33.203 190.295 M365.710 191.260 L 365.137 191.895 365.771 191.321 C 366.363 190.786,366.496 190.625,366.345 190.625 C 366.312 190.625,366.026 190.911,365.710 191.260 M264.728 196.875 C 264.728 198.647,264.758 199.373,264.794 198.486 C 264.830 197.600,264.830 196.150,264.794 195.264 C 264.758 194.377,264.728 195.103,264.728 196.875 M21.680 194.202 C 21.680 194.235,21.965 194.521,22.314 194.837 L 22.949 195.410 22.376 194.775 C 21.841 194.184,21.680 194.051,21.680 194.202 M375.872 195.557 L 374.902 196.582 375.928 195.613 C 376.492 195.080,376.953 194.618,376.953 194.587 C 376.953 194.442,376.772 194.604,375.872 195.557 M373.232 197.998 L 372.559 198.730 373.291 198.057 C 373.973 197.431,374.113 197.266,373.964 197.266 C 373.931 197.266,373.602 197.595,373.232 197.998 M264.502 201.074 C 264.505 201.504,264.545 201.657,264.591 201.414 C 264.638 201.171,264.636 200.819,264.587 200.632 C 264.538 200.446,264.500 200.645,264.502 201.074 M110.596 201.270 C 110.598 201.699,110.638 201.852,110.685 201.609 C 110.732 201.366,110.730 201.015,110.681 200.828 C 110.632 200.641,110.594 200.840,110.596 201.270 M124.066 202.148 C 124.064 202.417,124.133 202.856,124.219 203.125 C 124.429 203.781,124.429 203.072,124.219 202.246 C 124.085 201.720,124.069 201.710,124.066 202.148 M260.051 211.377 L 259.082 212.402 260.107 211.433 C 261.060 210.533,261.222 210.352,261.077 210.352 C 261.046 210.352,260.584 210.813,260.051 211.377 M44.727 210.840 C 44.995 210.993,45.303 211.119,45.410 211.119 C 45.518 211.119,45.386 210.993,45.117 210.840 C 44.849 210.686,44.541 210.561,44.434 210.561 C 44.326 210.561,44.458 210.686,44.727 210.840 M128.418 211.523 C 128.947 212.061,129.424 212.500,129.478 212.500 C 129.531 212.500,129.142 212.061,128.613 211.523 C 128.084 210.986,127.607 210.547,127.554 210.547 C 127.500 210.547,127.889 210.986,128.418 211.523 M350.781 212.109 C 350.190 212.422,349.776 212.681,349.860 212.686 C 350.068 212.699,351.953 211.736,351.953 211.618 C 351.953 211.487,351.980 211.476,350.781 212.109 M49.219 212.988 C 49.487 213.142,49.795 213.267,49.902 213.267 C 50.010 213.267,49.878 213.142,49.609 212.988 C 49.341 212.835,49.033 212.709,48.926 212.709 C 48.818 212.709,48.950 212.835,49.219 212.988 M253.711 214.453 L 252.832 214.590 253.613 214.600 C 254.043 214.605,254.614 214.539,254.883 214.453 C 255.500 214.256,254.982 214.256,253.711 214.453 M134.033 214.588 C 134.221 214.637,134.529 214.637,134.717 214.588 C 134.905 214.539,134.751 214.498,134.375 214.498 C 133.999 214.498,133.845 214.539,134.033 214.588 M164.697 214.795 C 180.676 214.822,206.824 214.822,222.803 214.795 C 238.782 214.767,225.708 214.745,193.750 214.745 C 161.792 214.745,148.718 214.767,164.697 214.795 M134.619 234.314 C 134.807 234.363,135.115 234.363,135.303 234.314 C 135.491 234.265,135.337 234.225,134.961 234.225 C 134.585 234.225,134.431 234.265,134.619 234.314 M141.064 235.096 C 141.252 235.145,141.560 235.145,141.748 235.096 C 141.936 235.046,141.782 235.006,141.406 235.006 C 141.030 235.006,140.876 235.046,141.064 235.096 M142.822 235.291 C 143.010 235.340,143.318 235.340,143.506 235.291 C 143.694 235.242,143.540 235.202,143.164 235.202 C 142.788 235.202,142.634 235.242,142.822 235.291 M144.580 235.486 C 144.768 235.535,145.076 235.535,145.264 235.486 C 145.452 235.437,145.298 235.397,144.922 235.397 C 144.546 235.397,144.392 235.437,144.580 235.486 M254.346 235.486 C 254.534 235.535,254.841 235.535,255.029 235.486 C 255.217 235.437,255.063 235.397,254.688 235.397 C 254.312 235.397,254.158 235.437,254.346 235.486 M252.297 235.685 C 252.540 235.732,252.892 235.730,253.078 235.681 C 253.265 235.632,253.066 235.594,252.637 235.596 C 252.207 235.598,252.054 235.638,252.297 235.685 M148.586 235.880 C 148.829 235.927,149.181 235.925,149.368 235.876 C 149.554 235.827,149.355 235.789,148.926 235.791 C 148.496 235.794,148.343 235.834,148.586 235.880 M150.635 236.072 C 150.823 236.121,151.130 236.121,151.318 236.072 C 151.506 236.023,151.353 235.983,150.977 235.983 C 150.601 235.983,150.447 236.023,150.635 236.072 M248.196 236.076 C 248.439 236.122,248.790 236.121,248.977 236.072 C 249.164 236.023,248.965 235.985,248.535 235.987 C 248.105 235.989,247.953 236.029,248.196 236.076 M152.588 236.267 C 152.776 236.317,153.083 236.317,153.271 236.267 C 153.459 236.218,153.306 236.178,152.930 236.178 C 152.554 236.178,152.400 236.218,152.588 236.267 M245.852 236.271 C 246.095 236.318,246.446 236.316,246.633 236.267 C 246.820 236.218,246.621 236.180,246.191 236.182 C 245.762 236.184,245.609 236.224,245.852 236.271 M154.736 236.463 C 154.924 236.512,155.232 236.512,155.420 236.463 C 155.608 236.414,155.454 236.373,155.078 236.373 C 154.702 236.373,154.548 236.414,154.736 236.463 M243.508 236.466 C 243.751 236.513,244.103 236.511,244.289 236.462 C 244.476 236.413,244.277 236.375,243.848 236.377 C 243.418 236.380,243.265 236.420,243.508 236.466 M157.373 236.661 C 157.615 236.708,158.010 236.708,158.252 236.661 C 158.494 236.615,158.296 236.577,157.813 236.577 C 157.329 236.577,157.131 236.615,157.373 236.661 M241.164 236.662 C 241.407 236.708,241.759 236.707,241.946 236.658 C 242.132 236.609,241.934 236.571,241.504 236.573 C 241.074 236.575,240.921 236.615,241.164 236.662 M159.914 236.857 C 160.157 236.904,160.509 236.902,160.696 236.853 C 160.882 236.804,160.684 236.766,160.254 236.768 C 159.824 236.770,159.671 236.810,159.914 236.857 M238.623 236.857 C 238.865 236.903,239.260 236.903,239.502 236.857 C 239.744 236.810,239.546 236.772,239.063 236.772 C 238.579 236.772,238.381 236.810,238.623 236.857 M162.451 237.052 C 162.693 237.098,163.088 237.098,163.330 237.052 C 163.572 237.005,163.374 236.967,162.891 236.967 C 162.407 236.967,162.209 237.005,162.451 237.052 M235.598 237.054 C 235.895 237.099,236.335 237.098,236.575 237.052 C 236.815 237.005,236.572 236.968,236.035 236.970 C 235.498 236.971,235.302 237.009,235.598 237.054 M165.188 237.248 C 165.431 237.294,165.782 237.292,165.969 237.244 C 166.156 237.195,165.957 237.156,165.527 237.159 C 165.098 237.161,164.945 237.201,165.188 237.248 M232.959 237.247 C 233.201 237.294,233.596 237.294,233.838 237.247 C 234.080 237.201,233.882 237.163,233.398 237.163 C 232.915 237.163,232.717 237.201,232.959 237.247 M168.118 237.443 C 168.360 237.490,168.712 237.488,168.899 237.439 C 169.085 237.390,168.887 237.352,168.457 237.354 C 168.027 237.356,167.875 237.396,168.118 237.443 M230.225 237.443 C 230.466 237.489,230.862 237.489,231.104 237.443 C 231.345 237.396,231.147 237.358,230.664 237.358 C 230.181 237.358,229.983 237.396,230.225 237.443 M170.850 237.638 C 171.091 237.684,171.487 237.684,171.729 237.638 C 171.970 237.591,171.772 237.553,171.289 237.553 C 170.806 237.553,170.608 237.591,170.850 237.638 M227.295 237.638 C 227.537 237.684,227.932 237.684,228.174 237.638 C 228.416 237.591,228.218 237.553,227.734 237.553 C 227.251 237.553,227.053 237.591,227.295 237.638 M173.880 237.835 C 174.177 237.880,174.616 237.879,174.856 237.833 C 175.096 237.786,174.854 237.750,174.316 237.751 C 173.779 237.753,173.583 237.791,173.880 237.835 M224.075 237.835 C 224.372 237.880,224.811 237.879,225.052 237.833 C 225.292 237.786,225.049 237.750,224.512 237.751 C 223.975 237.753,223.778 237.791,224.075 237.835 M177.005 238.031 C 177.302 238.076,177.741 238.074,177.981 238.028 C 178.221 237.982,177.979 237.945,177.441 237.946 C 176.904 237.948,176.708 237.986,177.005 238.031 M220.557 238.031 C 220.852 238.075,221.335 238.075,221.631 238.031 C 221.926 237.986,221.685 237.949,221.094 237.949 C 220.503 237.949,220.261 237.986,220.557 238.031 M180.619 238.227 C 180.970 238.271,181.497 238.270,181.791 238.225 C 182.084 238.181,181.797 238.145,181.152 238.146 C 180.508 238.148,180.268 238.184,180.619 238.227 M216.553 238.227 C 216.902 238.271,217.473 238.271,217.822 238.227 C 218.171 238.184,217.886 238.148,217.188 238.148 C 216.489 238.148,216.204 238.184,216.553 238.227 M184.322 238.422 C 184.669 238.465,185.284 238.466,185.689 238.424 C 186.094 238.382,185.811 238.346,185.059 238.345 C 184.307 238.344,183.975 238.379,184.322 238.422 M211.768 238.424 C 212.170 238.466,212.830 238.466,213.232 238.424 C 213.635 238.381,213.306 238.347,212.500 238.347 C 211.694 238.347,211.365 238.381,211.768 238.424 M190.674 238.621 C 191.399 238.659,192.585 238.659,193.311 238.621 C 194.036 238.584,193.442 238.553,191.992 238.553 C 190.542 238.553,189.949 238.584,190.674 238.621 M202.403 238.622 C 203.456 238.657,205.126 238.657,206.114 238.622 C 207.102 238.587,206.240 238.558,204.199 238.558 C 202.158 238.558,201.350 238.587,202.403 238.622 " stroke="none" fill="#dcbd95" fill-rule="evenodd"></path><path id="path5" d="M185.656 134.669 C 179.128 138.601,173.819 146.637,173.013 153.809 C 172.625 157.258,171.756 159.106,169.842 160.551 C 165.881 163.541,160.848 162.687,158.312 158.594 C 156.335 155.402,157.680 149.696,161.919 143.301 C 163.456 140.982,163.443 141.139,162.070 141.497 C 151.061 144.365,137.028 157.509,130.396 171.164 C 121.219 190.062,121.746 208.844,131.587 213.598 C 133.755 214.646,133.373 214.640,195.215 214.643 C 252.474 214.645,254.321 214.624,256.105 213.932 C 257.901 213.236,262.057 209.843,261.633 209.419 C 261.585 209.372,261.714 209.155,261.917 208.936 C 262.582 208.223,263.820 205.234,263.961 204.004 C 263.998 203.682,264.139 202.891,264.275 202.246 C 266.162 193.258,261.763 176.155,254.810 165.452 C 252.537 161.952,249.154 157.617,248.697 157.617 C 248.538 157.617,248.474 157.521,248.550 157.398 C 248.629 157.269,247.649 156.171,246.169 154.730 C 240.057 148.780,234.153 145.038,225.719 141.765 C 224.031 141.110,223.741 141.149,224.379 141.947 C 230.508 149.604,231.997 156.673,228.209 160.135 C 223.093 164.811,215.550 161.991,214.943 155.176 C 214.744 152.939,214.610 152.237,214.035 150.439 C 213.454 148.619,213.153 148.094,213.364 149.268 C 213.466 149.830,213.456 149.849,213.278 149.435 C 213.168 149.177,213.130 148.802,213.194 148.601 C 213.426 147.868,211.009 143.002,209.191 140.544 C 207.397 138.118,202.984 134.375,201.919 134.375 C 201.612 134.375,201.586 135.157,201.571 145.112 C 201.551 157.849,201.501 158.252,199.695 160.058 C 196.469 163.284,191.873 163.285,188.634 160.062 C 186.735 158.172,186.810 158.786,186.857 145.459 C 186.880 139.148,186.875 133.984,186.846 133.984 C 186.817 133.984,186.282 134.293,185.656 134.669 M163.678 169.649 C 168.088 170.958,171.930 174.706,172.387 178.145 C 172.816 181.377,167.256 184.317,163.525 182.830 C 162.961 182.606,162.061 182.247,161.526 182.033 C 160.421 181.592,160.072 181.661,157.324 182.864 C 151.964 185.211,146.737 181.298,148.932 176.583 C 151.431 171.213,158.210 168.026,163.678 169.649 M224.209 169.348 C 230.128 170.308,235.499 176.168,233.903 179.924 C 232.512 183.198,228.292 184.259,224.403 182.313 C 222.922 181.572,222.217 181.525,221.023 182.091 C 214.815 185.030,208.173 181.102,210.795 176.042 C 213.129 171.538,219.159 168.529,224.209 169.348 " stroke="none" fill="#fffcd0" fill-rule="evenodd"></path></g></svg>